{"glyphs":{"0":{"ha":791,"x_min":63,"x_max":730,"o":"m 396 81 q 605 478 605 81 q 534 812 605 717 q 396 879 483 879 q 190 570 209 879 q 188 481 188 527 q 191 391 188 434 q 200 304 193 348 q 222 221 207 260 q 258 151 236 181 q 396 81 309 81 m 396 976 q 730 478 730 976 q 709 260 730 336 q 663 138 687 185 q 601 58 638 91 q 396 -14 522 -14 q 130 137 213 -14 q 63 478 63 258 q 84 700 63 622 q 129 824 104 777 q 192 904 155 870 q 396 976 271 976 z "},"1":{"ha":791,"x_min":155,"x_max":492,"o":"m 223 740 q 195 733 211 733 q 167 747 179 733 q 155 774 155 761 q 174 814 155 798 l 403 958 q 436 967 415 967 q 475 953 457 967 q 492 909 492 939 l 492 56 q 455 4 492 16 q 433 0 445 0 q 411 4 422 0 q 392 14 401 7 q 374 56 374 28 l 374 839 l 223 740 z "},"2":{"ha":791,"x_min":72,"x_max":694,"o":"m 404 876 q 349 871 374 876 q 301 858 323 867 q 220 819 246 837 q 182 809 200 809 q 150 821 164 809 q 137 849 137 833 q 149 880 137 865 q 183 909 162 895 q 231 934 204 923 q 288 956 258 946 q 410 976 353 976 q 518 961 466 976 q 608 918 570 946 q 694 747 694 854 q 422 302 694 570 q 312 193 369 250 q 213 98 255 135 l 647 98 q 683 83 672 98 q 694 48 694 67 q 682 15 694 30 q 647 0 670 0 l 155 0 q 92 18 113 0 q 72 60 72 35 q 118 146 72 107 q 202 230 151 176 q 302 334 253 285 q 400 439 352 383 q 487 547 448 494 q 571 737 571 661 q 519 840 571 803 q 404 876 469 876 z "},"3":{"ha":791,"x_min":116,"x_max":712,"o":"m 357 540 q 506 582 447 540 q 573 710 573 629 q 515 832 573 786 q 382 874 462 874 q 270 858 323 874 q 194 835 216 842 q 157 828 172 828 q 129 844 142 828 q 116 876 116 860 q 148 925 116 912 q 376 976 262 976 q 600 911 513 976 q 696 712 696 840 q 640 570 696 629 q 510 499 587 513 l 510 496 q 656 411 601 478 q 712 263 712 345 q 685 130 712 181 q 612 46 658 79 q 390 -14 529 -14 q 225 12 309 -14 q 147 50 167 30 q 127 87 127 70 q 140 119 127 104 q 169 134 153 134 q 196 129 185 134 q 229 116 207 125 q 278 102 251 107 q 388 86 341 86 q 471 97 434 86 q 534 128 508 107 q 587 250 587 172 q 520 394 587 339 q 367 445 461 445 l 316 445 q 282 460 294 445 q 271 492 271 475 q 282 524 271 510 q 316 540 294 538 l 357 540 z "},"4":{"ha":791,"x_min":26,"x_max":749,"o":"m 418 912 q 515 967 450 967 q 592 921 571 967 q 600 884 600 905 l 600 304 l 703 304 q 738 290 726 304 q 749 258 749 276 q 738 228 749 241 q 703 214 726 214 l 600 214 l 600 55 q 587 19 600 30 q 541 0 566 0 q 487 32 505 0 q 482 55 482 40 l 482 214 l 91 214 q 44 234 62 214 q 26 271 26 253 q 39 322 26 302 l 418 912 m 130 304 l 482 304 l 482 856 l 130 304 z "},"5":{"ha":791,"x_min":95,"x_max":728,"o":"m 218 531 q 434 626 306 626 q 647 534 566 626 q 728 309 728 445 q 638 77 728 169 q 404 -14 550 -14 q 148 81 232 -14 q 98 172 120 113 q 95 193 95 179 q 108 221 95 207 q 137 234 121 234 q 185 202 167 234 q 392 81 234 81 q 591 222 545 81 q 603 314 603 264 q 591 403 603 364 q 554 471 578 441 q 413 534 499 534 q 295 501 350 534 q 237 447 253 475 q 172 399 211 399 q 139 412 153 399 q 125 452 125 425 l 125 914 q 181 967 125 967 l 633 967 q 669 952 658 967 q 680 919 680 937 q 669 887 680 902 q 633 872 658 872 l 220 872 l 218 531 z "},"6":{"ha":791,"x_min":60,"x_max":733,"o":"m 200 893 q 306 954 244 932 q 468 976 367 976 q 659 927 568 976 q 680 890 680 918 q 654 842 680 860 q 637 837 645 837 q 605 847 629 837 q 464 877 531 877 q 353 860 397 877 q 280 813 309 842 q 230 745 250 784 q 200 663 211 707 q 185 483 185 587 q 285 592 220 556 q 427 628 350 628 q 560 605 505 628 q 654 541 615 582 q 733 315 733 459 q 649 77 733 167 q 415 -14 564 -14 q 60 445 60 -14 q 200 893 60 770 m 408 81 q 492 97 454 81 q 559 141 531 113 q 612 309 612 199 q 506 524 612 469 q 419 541 471 541 q 326 524 367 541 q 257 475 285 506 q 200 302 200 415 q 257 144 200 204 q 408 81 316 81 z "},"7":{"ha":791,"x_min":70,"x_max":709,"o":"m 348 33 q 294 0 334 0 q 236 33 255 0 q 229 55 229 44 q 236 81 229 67 l 580 868 l 120 868 q 83 883 95 868 q 70 917 70 898 q 83 951 70 935 q 120 967 95 967 l 638 967 q 692 949 675 967 q 709 907 709 932 q 698 860 709 883 l 348 33 z "},"8":{"ha":791,"x_min":58,"x_max":735,"o":"m 265 499 q 127 577 188 510 q 72 713 72 640 q 99 833 72 786 q 172 912 127 881 q 396 976 260 976 q 622 912 531 976 q 721 721 721 842 q 605 531 721 607 q 527 499 570 508 q 680 411 624 473 q 735 255 735 348 q 633 53 735 125 q 396 -14 538 -14 q 158 53 253 -14 q 58 255 58 125 q 113 404 58 343 q 265 498 181 478 l 265 499 m 190 721 q 205 647 190 677 q 248 596 220 617 q 396 556 302 556 q 587 647 543 556 q 603 721 603 679 q 585 796 603 763 q 538 847 568 828 q 396 886 478 886 q 255 847 315 886 q 190 721 190 805 m 181 262 q 199 181 181 216 q 246 123 216 146 q 396 81 301 81 q 594 179 540 81 q 612 261 612 214 q 593 342 612 308 q 545 397 575 376 q 396 450 478 450 q 246 397 316 450 q 181 262 181 350 z "},"9":{"ha":791,"x_min":60,"x_max":733,"o":"m 733 534 q 341 -14 733 -14 q 134 33 222 -14 q 113 70 113 42 q 141 120 113 105 q 155 125 148 125 q 169 123 162 125 q 332 86 262 86 q 445 104 403 86 q 516 151 487 121 q 563 222 545 181 q 592 311 582 264 q 610 494 610 390 l 607 494 q 436 359 559 387 q 344 350 399 350 q 233 373 288 350 q 139 436 178 396 q 60 656 60 519 q 144 883 60 795 q 376 976 234 976 q 701 751 621 976 q 733 534 733 663 m 385 881 q 300 864 338 881 q 236 819 262 847 q 181 663 181 758 q 227 505 181 568 q 373 436 276 436 q 536 503 476 436 q 592 668 592 566 q 534 816 592 756 q 385 881 475 881 z "}," ":{"ha":382,"x_min":0,"x_max":0,"o":""},"!":{"ha":536,"x_min":192,"x_max":339,"o":"m 265 123 q 334 84 315 123 q 339 62 339 74 q 334 39 339 49 q 320 19 329 28 q 274 0 301 0 q 234 5 248 0 q 211 19 220 11 q 197 40 202 28 q 192 62 192 51 q 197 84 192 72 q 211 104 202 95 q 265 123 230 123 m 199 949 q 218 990 199 976 q 262 1004 237 1004 q 305 991 287 1004 q 323 949 323 977 l 304 297 q 290 257 302 271 q 261 243 278 243 q 231 257 244 243 q 216 297 218 271 l 199 949 z "},"\"":{"ha":429,"x_min":67,"x_max":359,"o":"m 248 955 l 248 958 q 265 992 248 979 q 302 1004 281 1004 q 341 992 323 1004 q 359 958 359 981 l 359 955 l 339 719 q 326 686 338 698 q 302 673 315 673 q 278 685 288 673 q 265 719 267 696 l 248 955 m 67 955 l 67 958 q 84 992 67 979 q 121 1004 100 1004 q 160 992 142 1004 q 178 958 178 981 l 178 955 l 158 719 q 145 686 156 698 q 121 673 134 673 q 98 685 109 673 q 84 719 86 696 l 67 955 z "},"#":{"ha":791,"x_min":49,"x_max":744,"o":"m 467 -35 q 458 -35 467 -35 q 437 -24 450 -35 q 424 2 424 -12 l 424 19 l 466 311 l 287 311 l 241 7 q 223 -25 237 -14 q 193 -35 209 -35 q 163 -24 176 -35 q 149 2 149 -12 l 149 19 l 193 311 l 93 311 q 61 325 72 311 q 49 356 49 339 q 60 386 49 373 q 93 399 70 399 l 204 399 l 232 585 l 130 585 q 98 600 109 585 q 86 630 86 614 q 98 660 86 647 q 130 673 109 673 l 244 673 l 285 949 q 303 980 288 970 q 335 990 318 990 q 366 978 352 990 q 380 946 380 967 l 380 941 q 378 937 380 939 l 339 673 l 519 673 l 559 949 q 608 990 566 990 q 639 978 626 990 q 652 953 652 967 l 652 937 l 614 673 l 700 673 q 732 660 721 673 q 744 629 744 647 q 732 599 744 612 q 700 585 721 585 l 600 585 l 573 399 l 661 399 q 694 385 682 399 q 705 355 705 371 q 694 325 705 339 q 661 311 682 311 l 559 311 l 515 7 q 498 -25 512 -14 q 467 -35 483 -35 m 299 399 l 478 399 l 506 585 l 327 585 l 299 399 z "},"$":{"ha":863,"x_min":62,"x_max":752,"o":"m 359 -28 q 121 19 264 -28 q 83 69 83 32 q 93 99 83 86 q 119 113 104 113 q 150 106 134 113 q 193 93 167 100 q 246 81 218 86 q 374 67 309 67 q 480 77 438 67 q 556 109 522 88 q 626 232 626 155 q 549 357 626 313 q 419 411 491 390 q 300 448 348 432 q 208 484 251 464 q 134 534 165 505 q 62 703 62 598 q 151 883 62 812 q 359 956 236 949 l 359 1041 q 371 1068 359 1058 q 397 1078 383 1078 q 422 1069 411 1078 q 432 1041 432 1060 l 432 956 q 656 916 575 948 q 685 897 675 911 q 694 867 694 883 q 683 838 694 851 q 658 825 672 825 q 626 829 643 825 q 578 839 608 833 q 520 851 549 846 q 407 861 445 861 q 330 853 369 861 q 257 826 290 844 q 185 717 185 788 q 274 580 185 631 q 364 541 313 557 q 469 507 415 524 q 573 471 522 491 q 665 422 624 452 q 752 243 752 355 q 658 53 752 130 q 432 -26 570 -16 l 432 -120 q 421 -147 432 -137 q 396 -156 410 -156 q 370 -148 382 -156 q 359 -120 359 -139 l 359 -28 z "},"%":{"ha":1396,"x_min":151,"x_max":1246,"o":"m 443 865 q 379 881 417 881 q 315 864 341 881 q 273 821 288 847 q 243 691 243 772 q 315 517 243 563 q 379 501 341 501 q 442 518 417 501 q 483 563 468 534 q 513 691 513 614 q 443 865 513 818 m 909 949 q 942 974 925 974 q 971 963 960 974 q 983 938 983 953 q 976 914 983 923 l 440 -28 q 411 -47 429 -47 q 380 -37 392 -47 q 367 -15 367 -26 q 373 5 367 -4 l 909 949 m 380 951 q 478 929 436 951 q 549 870 520 907 q 605 691 605 800 q 545 510 605 582 q 378 432 483 432 q 211 508 273 432 q 151 691 151 580 q 211 876 151 802 q 380 951 274 951 m 1020 499 q 1119 476 1076 499 q 1190 418 1162 454 q 1246 239 1246 345 q 1185 56 1246 130 q 1018 -21 1122 -21 q 851 56 912 -21 q 791 239 791 130 q 851 422 791 346 q 1020 499 914 499 m 1081 411 q 1017 429 1055 429 q 954 412 979 429 q 912 369 928 396 q 884 239 884 320 q 955 67 884 111 q 1018 49 981 49 q 1081 66 1055 49 q 1123 109 1108 83 q 1153 239 1153 162 q 1081 411 1153 367 z "},"&":{"ha":1025,"x_min":70,"x_max":951,"o":"m 754 127 q 445 -19 626 -19 q 181 58 288 -19 q 70 276 70 139 q 232 524 70 415 q 320 587 276 556 q 234 693 258 654 q 186 825 186 768 q 207 919 186 883 q 260 977 227 955 q 424 1023 327 1023 q 587 979 522 1023 q 665 840 665 928 q 547 629 665 728 q 480 575 513 601 l 756 281 q 819 517 802 376 q 825 591 825 559 q 841 633 826 622 q 870 643 856 643 q 893 640 884 643 q 911 629 902 636 q 928 592 928 614 l 928 587 q 927 584 928 585 q 919 502 923 549 q 904 404 914 455 q 830 207 876 287 l 937 91 q 951 58 951 74 q 947 32 951 42 q 934 13 942 21 q 916 1 927 5 q 895 -4 905 -4 q 854 14 872 -4 l 754 127 m 390 513 q 192 292 192 385 q 267 132 192 193 q 440 74 338 74 q 635 144 549 74 q 689 193 663 167 l 390 513 m 342 908 q 334 902 342 908 q 315 878 325 897 q 304 834 304 860 q 314 782 304 809 q 339 731 323 756 q 411 643 367 687 q 456 685 432 665 q 499 728 480 705 q 547 833 547 781 q 510 907 547 879 q 439 932 475 932 q 381 926 403 932 q 342 908 359 919 z "},"'":{"ha":396,"x_min":142,"x_max":253,"o":"m 142 955 l 142 958 q 160 992 142 979 q 199 1004 178 1004 q 236 992 220 1004 q 253 958 253 981 l 253 955 l 234 719 q 222 686 232 698 q 198 673 211 673 q 174 685 185 673 q 162 719 164 696 l 142 955 z "},"(":{"ha":401,"x_min":105,"x_max":331,"o":"m 288 -149 q 246 -118 258 -149 q 105 429 105 207 q 193 847 105 615 q 246 981 218 914 q 282 1013 260 1013 q 317 1001 304 1013 q 331 977 331 990 q 327 953 331 963 q 223 431 223 675 q 327 -91 223 190 q 330 -113 331 -98 q 316 -138 329 -127 q 288 -149 304 -149 z "},")":{"ha":401,"x_min":72,"x_max":297,"o":"m 297 429 q 156 -118 297 207 q 114 -149 144 -149 q 85 -138 98 -149 q 72 -113 72 -127 q 99 -30 72 -100 q 154 172 127 40 q 181 431 181 304 q 76 953 181 670 q 72 975 72 962 q 85 1000 72 988 q 113 1013 98 1013 q 156 981 142 1013 q 250 730 223 821 q 297 429 297 557 z "},"*":{"ha":749,"x_min":97,"x_max":652,"o":"m 443 772 l 608 779 q 639 767 626 779 q 652 737 652 754 q 640 707 652 719 q 608 694 628 694 l 443 701 l 527 563 q 525 516 540 533 q 494 499 510 499 q 454 520 464 499 l 374 665 l 294 520 q 257 499 285 505 q 229 510 239 499 q 214 537 214 524 q 220 563 214 550 l 306 701 l 141 694 q 110 707 123 694 q 97 737 97 719 q 109 767 97 754 q 141 779 121 779 l 304 772 l 218 911 q 213 934 213 921 q 224 961 213 948 q 251 974 236 974 q 294 953 280 974 l 374 807 l 454 953 q 490 974 468 974 q 523 961 512 974 q 534 934 534 948 q 529 911 534 919 l 443 772 z "},"+":{"ha":907,"x_min":107,"x_max":802,"o":"m 501 382 l 754 382 q 788 369 774 382 q 802 338 802 357 q 789 304 802 318 q 754 290 775 290 l 501 290 l 501 47 q 487 16 501 28 q 453 4 473 4 q 419 16 432 4 q 406 47 406 28 l 406 290 l 155 290 q 121 304 135 290 q 107 337 107 318 q 120 368 107 355 q 155 382 134 382 l 406 382 l 406 626 q 420 659 406 645 q 454 673 434 673 q 487 660 473 673 q 501 626 501 647 l 501 382 z "},",":{"ha":396,"x_min":76,"x_max":273,"o":"m 169 -164 l 76 -164 l 139 125 l 273 125 l 169 -164 z "},"-":{"ha":403,"x_min":21,"x_max":383,"o":"m 70 309 q 35 323 49 309 q 21 358 21 338 q 35 392 21 378 q 70 406 49 406 l 334 406 q 369 392 355 406 q 383 358 383 378 q 369 323 383 338 q 334 309 355 309 l 70 309 z "},".":{"ha":396,"x_min":125,"x_max":271,"o":"m 129 41 q 127 47 129 41 q 125 65 125 53 q 129 90 125 77 q 143 111 134 102 q 167 126 153 120 q 199 132 181 132 q 229 126 216 132 q 252 111 243 120 q 266 90 262 102 q 271 65 271 77 q 266 41 271 53 q 253 21 262 30 q 207 0 232 0 q 167 5 181 0 q 143 20 153 11 q 129 41 134 30 z "},"/":{"ha":397,"x_min":-14,"x_max":413,"o":"m 79 -84 q 33 -120 69 -120 q 1 -107 16 -120 q -14 -81 -14 -95 q -11 -56 -14 -67 l 318 935 q 364 970 329 970 q 397 958 382 970 q 413 933 413 946 q 410 907 413 919 l 79 -84 z "},":":{"ha":396,"x_min":125,"x_max":271,"o":"m 125 612 q 167 672 125 654 q 199 679 181 679 q 229 672 216 679 q 253 658 243 666 q 271 612 271 640 q 229 552 271 568 q 198 547 214 547 q 167 552 181 547 q 144 566 153 557 q 125 612 125 584 m 129 41 q 127 47 129 41 q 125 65 125 53 q 129 90 125 77 q 143 111 134 102 q 167 126 153 120 q 199 132 181 132 q 229 126 216 132 q 252 111 243 120 q 266 90 262 102 q 271 65 271 77 q 266 41 271 53 q 253 21 262 30 q 207 0 232 0 q 167 5 181 0 q 143 20 153 11 q 129 41 134 30 z "},";":{"ha":396,"x_min":98,"x_max":295,"o":"m 147 601 q 145 607 147 601 q 142 626 142 614 q 147 650 142 638 q 162 672 151 663 q 214 691 183 691 q 264 677 248 691 q 284 650 280 663 q 288 626 288 638 q 284 601 288 614 q 271 580 280 589 q 214 559 246 559 q 168 574 185 559 q 147 601 151 589 m 193 -164 l 98 -164 l 162 125 l 295 125 l 193 -164 z "},"<":{"ha":907,"x_min":93,"x_max":802,"o":"m 134 285 q 93 336 93 302 q 135 389 93 371 l 737 645 q 760 649 745 649 q 788 635 775 649 q 800 605 800 621 q 772 564 800 577 l 229 336 l 775 93 q 802 60 802 81 q 789 25 802 39 q 763 11 777 11 q 738 14 749 11 l 134 285 z "},"=":{"ha":907,"x_min":107,"x_max":802,"o":"m 155 158 q 121 171 135 158 q 107 203 107 185 q 120 236 107 222 q 155 250 134 250 l 754 250 q 788 236 774 250 q 802 204 802 223 q 789 171 802 185 q 754 158 775 158 l 155 158 m 155 424 q 121 438 135 424 q 107 470 107 452 q 120 502 107 489 q 155 515 134 515 l 754 515 q 788 502 774 515 q 802 470 802 489 q 789 438 802 452 q 754 424 775 424 l 155 424 z "},">":{"ha":907,"x_min":107,"x_max":814,"o":"m 775 387 q 814 336 814 371 q 772 281 814 301 l 171 26 q 146 23 160 23 q 120 37 132 23 q 107 67 107 51 q 135 107 107 93 l 679 336 l 134 578 q 107 611 107 589 q 119 647 107 633 q 144 661 130 661 q 169 656 158 661 l 775 387 z "},"?":{"ha":700,"x_min":97,"x_max":603,"o":"m 336 345 l 338 288 q 321 252 338 264 q 282 241 304 241 q 250 251 260 241 q 235 279 239 260 q 231 325 230 297 q 232 387 232 353 q 299 508 236 445 q 359 564 327 536 q 418 622 390 592 q 482 765 482 696 q 427 890 482 847 q 304 921 383 921 q 151 904 216 921 q 133 902 144 902 q 109 918 121 902 q 97 951 97 934 q 139 1004 97 992 q 300 1023 213 1023 q 436 1008 387 1023 q 522 963 485 993 q 603 774 603 895 q 517 577 603 668 q 426 486 471 527 q 366 427 382 445 q 336 355 339 394 l 336 345 m 220 35 q 217 41 220 35 q 214 60 214 47 q 220 84 214 72 q 234 105 225 95 q 288 125 251 125 q 337 110 322 125 q 356 84 352 95 q 360 60 360 72 q 356 35 360 47 q 341 14 352 23 q 288 -7 322 -7 q 238 8 251 -7 q 220 35 225 23 z "},"@":{"ha":1109,"x_min":39,"x_max":1051,"o":"m 394 542 q 387 525 394 542 q 373 474 380 508 q 366 412 366 440 q 373 361 366 385 q 394 320 380 338 q 471 281 422 281 q 563 304 524 281 q 649 404 628 345 l 703 573 q 709 613 709 592 q 698 653 709 633 q 672 687 687 673 q 597 717 635 717 q 529 703 559 717 q 474 665 499 689 q 428 608 448 640 q 394 542 408 577 m 716 304 q 754 271 716 271 q 831 299 793 271 q 897 373 868 327 q 962 579 962 476 q 932 750 962 682 q 853 861 902 818 q 607 949 754 949 q 383 895 494 949 q 149 628 206 809 q 130 476 130 566 q 164 302 130 385 q 257 165 199 220 q 559 56 376 56 q 737 83 645 55 q 759 86 745 86 q 781 76 772 86 q 789 53 789 65 q 767 18 789 25 q 546 -18 654 -18 q 345 18 438 -18 q 185 120 253 53 q 39 501 39 262 q 127 788 39 658 q 338 963 200 898 q 605 1025 468 1025 q 914 921 791 1025 q 1051 591 1051 802 q 999 390 1051 487 q 879 246 953 302 q 733 190 803 190 q 635 229 672 190 q 617 262 622 243 q 540 210 585 229 q 448 192 494 192 q 306 253 360 192 q 253 403 253 313 q 295 591 253 494 q 496 791 366 742 q 578 809 540 809 q 638 803 615 809 q 682 788 661 798 q 745 719 726 761 l 752 740 q 773 767 758 758 q 803 775 788 775 q 832 766 819 775 q 846 743 846 756 q 842 721 846 730 l 731 378 q 716 304 716 331 z "},"A":{"ha":942,"x_min":33,"x_max":911,"o":"m 907 74 q 911 52 911 62 q 905 32 911 42 q 890 14 898 21 q 851 0 872 0 q 795 35 809 0 l 709 253 l 229 253 l 142 35 q 93 0 130 0 q 39 32 55 0 q 33 52 33 42 q 37 74 33 62 l 359 861 q 440 963 392 953 q 471 967 454 967 q 526 953 508 967 q 582 861 559 923 l 907 74 m 264 345 l 675 345 l 469 867 l 264 345 z "},"B":{"ha":939,"x_min":132,"x_max":839,"o":"m 132 909 q 144 946 132 932 q 192 967 167 967 l 503 967 q 716 901 633 967 q 798 724 798 835 q 745 584 798 647 q 612 506 694 524 l 612 503 q 823 352 775 475 q 839 262 839 311 q 822 166 839 213 q 767 83 805 120 q 517 0 677 0 l 192 0 q 137 35 155 0 q 132 58 132 46 l 132 909 m 251 93 l 455 93 q 647 130 589 93 q 714 274 714 174 q 529 450 714 429 q 406 455 473 455 l 251 455 l 251 93 m 675 712 q 448 874 675 874 l 251 874 l 251 543 l 452 543 q 658 633 605 543 q 675 712 675 665 z "},"C":{"ha":939,"x_min":81,"x_max":818,"o":"m 188 134 q 107 294 134 202 q 81 480 81 385 q 107 666 81 575 q 188 826 134 758 q 520 976 308 976 q 763 921 650 976 q 793 881 793 907 q 781 839 793 854 q 756 825 770 825 q 712 836 742 825 q 628 859 682 847 q 520 870 573 870 q 421 854 468 870 q 338 809 374 837 q 278 743 302 781 q 237 661 253 705 q 207 478 207 575 q 278 216 207 327 q 529 90 359 90 q 694 123 605 90 q 742 144 724 135 q 778 156 761 156 q 806 143 795 156 q 818 112 818 130 q 803 76 818 93 q 766 46 789 60 q 711 20 742 32 q 647 0 680 9 q 522 -14 584 -14 q 188 134 306 -14 z "},"D":{"ha":1013,"x_min":121,"x_max":930,"o":"m 181 0 q 127 35 141 0 q 121 58 121 46 l 121 909 q 158 963 121 949 q 181 967 169 967 l 411 967 q 897 691 796 967 q 930 481 930 600 q 896 273 930 362 q 795 123 861 183 q 415 0 659 0 l 181 0 m 241 95 l 427 95 q 714 200 619 95 q 802 483 802 295 q 693 777 802 677 q 396 872 592 872 l 241 872 l 241 95 z "},"E":{"ha":851,"x_min":135,"x_max":767,"o":"m 195 0 q 141 37 158 0 q 135 58 135 47 l 135 909 q 169 962 135 946 q 192 967 179 967 l 698 967 q 735 952 723 967 q 747 918 747 937 q 735 883 747 898 q 698 868 723 868 l 253 868 l 253 547 l 675 547 q 714 532 701 547 q 726 498 726 517 q 713 464 726 480 q 675 448 700 448 l 253 448 l 253 98 l 716 98 q 753 84 740 98 q 767 49 767 69 q 754 15 767 30 q 716 0 742 0 l 195 0 z "},"F":{"ha":779,"x_min":127,"x_max":710,"o":"m 127 909 q 143 951 127 935 q 183 967 160 967 l 661 967 q 698 952 686 967 q 710 918 710 937 q 698 883 710 898 q 661 868 686 868 l 246 868 l 246 552 l 643 552 q 681 537 668 552 q 694 504 694 522 q 681 469 694 485 q 643 454 668 454 l 246 454 l 246 56 q 207 4 246 16 q 180 0 197 0 q 145 14 164 0 q 127 56 127 28 l 127 909 z "},"G":{"ha":1014,"x_min":83,"x_max":897,"o":"m 291 191 q 312 165 291 191 q 400 111 332 139 q 563 83 468 83 q 777 113 658 83 l 777 408 l 585 408 q 551 422 563 408 q 540 454 540 436 q 550 485 540 471 q 585 499 561 499 l 846 499 q 883 485 870 499 q 897 448 897 471 l 897 93 q 851 33 897 46 q 573 -14 698 -14 q 362 15 448 -14 q 214 105 276 44 q 83 483 83 237 q 200 826 83 686 q 561 976 329 976 q 832 927 707 976 q 858 891 858 916 q 847 851 858 867 q 816 835 835 835 l 810 835 q 790 840 807 835 q 743 852 774 846 q 682 861 712 858 q 566 872 614 872 q 292 752 385 872 q 230 624 250 698 q 211 471 211 550 q 230 317 211 392 q 291 191 250 243 z "},"H":{"ha":1013,"x_min":130,"x_max":883,"o":"m 761 911 q 800 963 761 951 q 828 967 810 967 q 864 953 846 967 q 883 911 883 939 l 883 56 q 844 4 883 16 q 816 0 833 0 q 780 14 798 0 q 761 56 761 28 l 761 452 l 251 452 l 251 56 q 213 4 251 16 q 185 0 202 0 q 149 14 167 0 q 130 56 130 28 l 130 911 q 169 963 130 951 q 198 967 181 967 q 233 953 214 967 q 251 911 251 939 l 251 552 l 761 552 l 761 911 z "},"I":{"ha":401,"x_min":141,"x_max":262,"o":"m 141 909 q 179 963 141 951 q 207 967 190 967 q 243 953 225 967 q 262 909 262 939 l 262 56 q 223 4 262 16 q 195 0 213 0 q 159 14 178 0 q 141 56 141 28 l 141 909 z "},"J":{"ha":717,"x_min":40,"x_max":601,"o":"m 302 83 q 480 309 480 83 l 480 911 q 519 963 480 951 q 541 967 529 967 q 596 935 580 967 q 601 911 601 925 l 601 299 q 510 56 601 139 q 302 -14 431 -14 q 148 32 216 -14 q 47 162 76 76 q 40 196 40 178 q 55 227 40 214 q 86 239 70 239 q 132 211 120 239 q 302 83 176 83 z "},"K":{"ha":874,"x_min":139,"x_max":803,"o":"m 258 56 q 220 4 258 16 q 199 0 209 0 q 144 32 160 0 q 139 56 139 42 l 139 911 q 158 953 139 939 q 193 967 178 967 q 221 963 209 967 q 239 953 232 960 q 258 911 258 937 l 258 540 l 666 946 q 707 967 682 967 q 748 953 731 967 q 765 919 765 939 q 751 883 765 900 l 385 527 l 789 95 q 803 60 803 76 q 799 34 803 44 q 786 18 795 25 q 742 0 767 0 q 696 25 717 0 l 258 498 l 258 56 z "},"L":{"ha":779,"x_min":132,"x_max":742,"o":"m 193 0 q 137 35 153 0 q 132 60 132 47 l 132 911 q 171 963 132 951 q 199 967 181 967 q 235 953 216 967 q 253 911 253 939 l 253 98 l 691 98 q 730 84 717 98 q 742 50 742 69 q 730 16 742 32 q 691 0 717 0 l 193 0 z "},"M":{"ha":1326,"x_min":132,"x_max":1197,"o":"m 665 156 l 986 867 q 1030 941 1009 923 q 1091 967 1060 967 q 1139 961 1122 967 q 1169 942 1157 955 q 1197 861 1197 911 l 1197 53 q 1180 13 1197 26 q 1141 0 1162 0 q 1103 13 1120 0 q 1086 53 1086 26 l 1086 849 l 737 74 q 663 23 716 23 q 591 74 615 23 l 243 844 l 243 53 q 225 13 243 26 q 186 0 207 0 q 149 13 165 0 q 132 53 132 26 l 132 861 q 190 960 132 941 q 228 967 207 967 q 265 963 248 967 q 295 946 281 958 q 348 865 318 928 l 661 156 l 665 156 z "},"N":{"ha":1018,"x_min":121,"x_max":897,"o":"m 121 888 q 139 939 121 921 q 193 967 167 967 q 271 928 239 967 l 784 155 l 784 912 q 819 963 784 951 q 840 967 830 967 q 861 963 851 967 q 879 953 872 960 q 897 912 897 939 l 897 81 q 847 5 897 23 q 814 0 832 0 q 742 39 770 0 l 236 802 l 236 53 q 222 19 236 30 q 178 0 200 0 q 139 13 156 0 q 121 53 121 26 l 121 888 z "},"O":{"ha":1083,"x_min":86,"x_max":995,"o":"m 235 624 q 225 587 235 624 q 216 480 216 550 q 235 336 216 410 q 293 207 253 262 q 394 117 332 151 q 541 83 455 83 q 689 117 628 83 q 791 207 751 151 q 849 336 832 262 q 867 480 867 410 q 849 624 867 550 q 791 754 832 698 q 689 844 751 810 q 541 877 628 877 q 394 844 455 877 q 293 754 332 810 q 235 624 253 698 m 86 480 q 116 677 86 584 q 204 837 146 770 q 541 976 327 976 q 879 837 758 976 q 965 677 935 770 q 995 480 995 584 q 965 283 995 376 q 879 123 935 190 q 541 -14 758 -14 q 204 123 325 -14 q 116 283 146 190 q 86 480 86 376 z "},"P":{"ha":865,"x_min":132,"x_max":821,"o":"m 253 424 l 253 56 q 214 4 253 16 q 187 0 204 0 q 151 14 171 0 q 132 56 132 28 l 132 909 q 144 946 132 932 q 193 967 167 967 l 436 967 q 763 858 666 967 q 821 696 821 793 q 763 533 821 600 q 431 424 670 424 l 253 424 m 454 519 q 622 556 566 519 q 694 696 694 601 q 622 833 694 789 q 455 872 563 872 l 253 872 l 253 519 l 454 519 z "},"Q":{"ha":1083,"x_min":86,"x_max":1032,"o":"m 665 0 q 541 -14 594 -14 q 204 123 323 -14 q 116 281 146 188 q 86 479 86 374 q 116 677 86 584 q 204 837 146 770 q 541 976 327 976 q 879 837 758 976 q 995 478 995 701 q 949 264 995 369 q 830 97 909 172 l 983 97 q 1020 82 1007 97 q 1032 48 1032 67 q 1020 15 1032 30 q 983 0 1007 0 l 665 0 m 293 754 q 273 726 293 754 q 235 624 253 698 q 216 479 216 550 q 235 334 216 408 q 293 204 253 260 q 394 114 332 148 q 541 81 455 81 q 689 114 628 81 q 791 204 751 148 q 867 476 867 309 q 689 844 867 747 q 541 877 628 877 q 394 844 455 877 q 293 754 332 810 z "},"R":{"ha":939,"x_min":135,"x_max":830,"o":"m 135 909 q 148 946 135 932 q 195 967 171 967 l 487 967 q 798 840 719 967 q 830 714 830 793 q 778 580 830 635 q 631 505 726 526 l 631 501 q 763 432 724 487 q 802 311 793 385 q 826 60 821 148 q 808 15 826 30 q 767 0 789 0 q 724 13 744 0 q 703 55 705 26 q 689 200 694 137 q 677 306 684 262 q 658 377 670 350 q 626 420 647 404 q 483 448 585 448 l 255 448 l 255 56 q 218 4 255 16 q 189 0 206 0 q 154 14 172 0 q 135 56 135 28 l 135 909 m 432 543 q 661 598 605 543 q 703 709 703 636 q 628 847 703 812 q 476 872 575 872 l 255 872 l 255 543 l 432 543 z "},"S":{"ha":863,"x_min":83,"x_max":789,"o":"m 223 723 q 247 652 223 684 q 309 599 271 621 q 397 561 348 577 q 502 527 447 545 q 609 489 557 510 q 701 436 661 468 q 789 248 789 367 q 762 142 789 192 q 686 56 735 91 q 427 -14 587 -14 q 155 63 264 -14 q 84 125 88 107 q 83 140 83 132 q 86 158 83 148 q 95 176 90 169 q 124 195 111 195 q 149 186 137 195 q 178 165 162 178 q 221 137 195 153 q 278 109 246 121 q 414 84 348 84 q 523 94 480 84 q 598 125 566 104 q 665 241 665 171 q 489 417 665 362 q 386 449 440 432 q 280 489 332 466 q 186 543 227 512 q 122 620 146 575 q 98 721 98 665 q 127 826 98 777 q 200 907 155 876 q 434 976 295 976 q 756 846 633 976 q 765 823 765 837 q 762 800 765 809 q 754 784 759 791 q 721 767 742 767 q 675 791 700 767 q 584 847 621 832 q 445 874 519 874 q 295 837 357 874 q 223 723 223 796 z "},"T":{"ha":784,"x_min":18,"x_max":767,"o":"m 69 868 q 31 883 44 868 q 18 918 18 898 q 31 952 18 937 q 69 967 44 967 l 716 967 q 754 952 742 967 q 767 919 767 937 q 754 884 767 900 q 716 868 742 868 l 455 868 l 455 58 q 417 4 455 16 q 389 0 406 0 q 353 15 373 0 q 334 58 334 30 l 334 868 l 69 868 z "},"U":{"ha":1009,"x_min":128,"x_max":883,"o":"m 128 909 q 165 963 128 951 q 195 967 178 967 q 231 953 213 967 q 250 909 250 939 l 250 339 q 331 146 250 216 q 505 84 399 84 q 682 146 610 84 q 763 339 763 214 l 763 909 q 802 963 763 951 q 829 967 812 967 q 864 953 846 967 q 883 909 883 939 l 883 336 q 767 72 883 171 q 505 -14 666 -14 q 243 72 345 -14 q 128 336 128 171 l 128 909 z "},"V":{"ha":874,"x_min":30,"x_max":844,"o":"m 440 104 l 443 104 l 733 927 q 788 967 747 967 q 839 935 821 967 q 844 918 844 927 q 840 898 844 909 l 536 72 q 436 0 512 0 q 380 15 404 0 q 339 72 355 30 l 33 893 q 30 912 30 900 q 35 934 30 923 q 49 953 40 944 q 88 967 65 967 q 146 928 132 967 l 440 104 z "},"W":{"ha":1392,"x_min":26,"x_max":1371,"o":"m 694 851 l 447 76 q 406 19 436 39 q 344 0 376 0 q 285 18 311 0 q 248 76 258 37 l 30 893 q 26 911 26 900 q 33 933 26 921 q 49 951 39 944 q 90 967 70 967 q 141 930 130 967 l 352 104 l 610 897 q 643 949 619 932 q 696 967 668 967 q 784 897 759 967 l 1051 104 l 1261 927 q 1312 967 1271 967 q 1366 935 1348 967 q 1371 919 1371 927 q 1368 900 1371 907 l 1146 77 q 1108 18 1136 40 q 1050 0 1085 0 q 988 19 1016 0 q 949 77 960 39 l 694 851 z "},"X":{"ha":863,"x_min":46,"x_max":821,"o":"m 151 28 q 102 0 130 0 q 51 32 69 0 q 46 55 46 42 q 56 83 46 67 l 359 498 l 77 884 q 69 910 69 897 q 74 933 69 923 q 88 949 79 942 q 128 967 109 967 q 185 939 165 967 l 440 573 l 703 939 q 752 967 724 967 q 802 937 788 967 q 807 919 807 928 q 796 888 807 905 l 506 498 l 803 86 q 811 41 821 58 q 793 18 802 25 q 747 0 774 0 q 700 26 721 0 l 425 418 l 151 28 z "},"Y":{"ha":865,"x_min":51,"x_max":823,"o":"m 496 411 l 496 58 q 457 4 496 16 q 428 0 445 0 q 393 15 411 0 q 374 58 374 30 l 374 408 l 60 886 q 51 912 51 900 q 56 934 51 923 q 72 951 62 944 q 114 967 97 967 q 169 937 153 967 l 443 506 l 717 937 q 767 967 733 967 q 818 939 800 967 q 823 925 823 932 q 814 895 823 912 l 496 411 z "},"Z":{"ha":789,"x_min":47,"x_max":744,"o":"m 121 0 q 53 39 67 0 q 47 67 47 49 q 62 104 47 84 l 594 868 l 104 868 q 66 883 79 868 q 53 917 53 898 q 65 951 53 935 q 104 967 77 967 l 682 967 q 727 951 710 967 q 744 918 744 935 q 728 863 744 886 l 193 98 l 687 98 q 725 84 712 98 q 738 49 738 69 q 725 15 738 30 q 687 0 712 0 l 121 0 z "},"[":{"ha":413,"x_min":118,"x_max":339,"o":"m 118 912 q 134 951 118 935 q 172 967 149 967 l 297 967 q 329 954 318 967 q 339 926 339 941 q 329 898 339 911 q 297 884 318 884 l 229 884 l 229 -51 l 297 -51 q 329 -64 318 -51 q 339 -93 339 -77 q 329 -122 339 -109 q 297 -135 318 -135 l 172 -135 q 133 -120 148 -135 q 118 -81 118 -104 l 118 912 z "},"\\":{"ha":397,"x_min":-14,"x_max":413,"o":"m -11 955 q -14 980 -14 967 q 1 1005 -14 993 q 32 1016 16 1016 q 81 983 70 1016 l 410 -9 q 412 -33 413 -18 q 397 -61 411 -49 q 367 -72 383 -72 q 320 -39 331 -72 l -11 955 z "},"]":{"ha":413,"x_min":74,"x_max":297,"o":"m 297 -81 q 280 -120 297 -104 q 241 -135 264 -135 l 116 -135 q 84 -122 95 -135 q 74 -93 74 -109 q 84 -64 74 -77 q 116 -51 95 -51 l 186 -51 l 186 884 l 116 884 q 84 898 95 884 q 74 927 74 911 q 84 955 74 942 q 116 967 95 967 l 241 967 q 280 951 264 967 q 297 912 297 935 l 297 -81 z "},"^":{"ha":907,"x_min":127,"x_max":779,"o":"m 454 837 l 216 362 q 180 334 204 334 q 142 345 156 334 q 127 371 127 357 q 130 396 127 385 l 396 909 q 454 946 415 946 q 510 909 492 946 l 775 396 q 779 377 779 385 q 774 360 779 369 q 763 346 770 352 q 731 334 747 334 q 689 362 703 334 l 454 837 z "},"_":{"ha":694,"x_min":0,"x_max":694,"o":"m 37 -172 q 0 -132 0 -172 q 37 -91 0 -91 l 654 -91 q 684 -104 673 -91 q 694 -131 694 -116 q 684 -159 694 -146 q 654 -172 673 -172 l 37 -172 z "},"`":{"ha":385,"x_min":40,"x_max":327,"o":"m 56 927 q 40 951 40 935 q 46 977 40 967 q 60 997 51 988 q 95 1016 79 1016 q 137 1000 121 1016 l 318 795 q 327 774 327 786 q 320 755 327 763 q 301 747 313 747 q 274 759 288 747 l 56 927 z "},"a":{"ha":707,"x_min":47,"x_max":607,"o":"m 424 410 l 501 408 l 501 466 q 346 603 501 603 q 243 591 274 603 q 172 558 206 577 q 124 540 139 540 q 98 551 109 540 q 86 578 86 563 q 100 607 86 594 q 350 687 185 687 q 587 561 534 687 q 607 457 607 517 l 605 47 q 589 11 605 23 q 553 0 573 0 q 517 11 533 0 q 501 46 501 23 l 501 109 q 348 -7 459 19 q 272 -14 313 -14 q 188 -1 230 -14 q 114 39 146 12 q 47 186 47 91 q 424 410 47 410 m 501 329 q 433 327 471 327 q 358 325 396 327 q 284 316 320 323 q 220 295 248 309 q 156 190 156 260 q 200 98 156 134 q 302 69 236 72 q 440 120 383 69 q 501 269 498 171 l 501 329 z "},"b":{"ha":784,"x_min":93,"x_max":726,"o":"m 445 -14 q 199 118 281 -14 l 199 47 q 180 11 197 23 q 145 0 164 0 q 110 12 127 0 q 93 51 93 25 l 93 918 q 111 955 93 942 q 149 967 128 967 q 185 955 169 967 q 202 918 202 942 l 202 563 q 373 679 251 652 q 461 687 406 687 q 570 658 515 687 q 658 580 624 629 q 726 339 726 485 q 661 97 726 192 q 445 -14 584 -14 m 250 527 q 237 509 250 527 q 214 446 225 492 q 202 345 202 399 q 213 240 202 290 q 250 151 223 190 q 424 69 306 69 q 540 113 492 69 q 612 345 612 183 q 506 580 612 519 q 411 603 468 603 q 315 582 355 603 q 250 527 274 561 z "},"c":{"ha":658,"x_min":62,"x_max":600,"o":"m 62 336 q 144 584 62 485 q 382 687 234 687 q 501 670 455 687 q 587 600 587 636 q 577 571 587 584 q 553 559 566 559 q 531 563 540 559 q 403 602 462 601 q 304 584 345 603 q 236 531 264 564 q 176 338 176 457 q 222 155 176 229 q 390 69 276 69 q 543 113 459 69 q 586 109 573 123 q 600 76 600 95 q 577 40 600 58 q 520 11 554 23 q 239 14 362 -42 q 81 200 125 67 q 62 336 62 264 z "},"d":{"ha":788,"x_min":62,"x_max":694,"o":"m 642 0 q 585 49 592 0 l 585 113 q 478 15 538 44 q 344 -14 418 -14 q 215 16 269 -14 q 128 95 162 46 q 62 339 62 197 q 130 580 62 485 q 346 687 204 687 q 541 619 459 687 q 585 564 568 596 l 585 918 q 602 955 585 942 q 640 967 619 967 q 678 954 661 967 q 694 918 694 941 l 694 51 q 678 12 694 25 q 642 0 661 0 m 475 582 q 377 603 434 603 q 281 580 320 603 q 220 520 243 557 q 176 345 176 450 q 299 81 176 135 q 378 69 327 69 q 471 91 429 69 q 538 151 513 114 q 584 348 584 222 q 475 582 584 524 z "},"e":{"ha":767,"x_min":63,"x_max":707,"o":"m 707 357 q 696 330 707 341 q 663 318 686 318 l 178 318 q 246 130 181 188 q 404 69 315 69 q 607 139 499 69 q 636 149 621 149 q 659 139 650 149 q 668 118 668 128 q 654 83 668 97 q 396 -14 550 -14 q 162 79 251 -14 q 63 336 63 179 q 146 580 63 482 q 385 687 236 687 q 626 592 541 687 q 707 357 703 505 m 600 389 q 540 545 592 487 q 387 603 487 603 q 243 540 299 603 q 181 389 188 478 l 600 389 z "},"f":{"ha":471,"x_min":30,"x_max":469,"o":"m 432 890 l 359 898 q 288 854 304 898 q 273 694 273 819 l 273 672 l 389 672 q 421 659 410 672 q 432 632 432 647 q 422 605 432 617 q 389 592 411 592 l 273 592 l 273 53 q 256 13 273 26 q 223 0 239 0 q 198 4 207 0 q 181 14 188 7 q 164 53 164 28 l 164 592 l 72 592 q 40 605 51 592 q 30 632 30 617 q 40 659 30 647 q 72 672 51 672 l 164 672 l 164 747 q 264 970 164 932 q 327 983 295 983 q 443 965 387 983 q 469 928 469 958 q 461 902 469 914 q 432 890 452 890 z "},"g":{"ha":788,"x_min":60,"x_max":694,"o":"m 376 603 q 178 338 178 603 q 239 141 178 211 q 376 77 292 77 q 522 144 462 77 q 587 334 587 214 q 476 580 587 515 q 376 603 436 603 m 348 687 q 592 552 519 687 l 592 626 q 609 660 594 649 q 643 672 624 672 q 679 659 663 672 q 694 622 694 647 l 694 -14 q 506 -269 694 -218 q 389 -285 448 -285 q 292 -279 329 -285 q 225 -262 255 -273 q 134 -202 165 -239 q 120 -172 120 -188 q 131 -145 120 -156 q 156 -134 142 -134 q 185 -139 171 -134 q 222 -160 204 -149 q 264 -179 241 -171 q 365 -195 309 -195 q 460 -186 420 -195 q 527 -158 499 -178 q 587 -23 587 -116 l 587 132 q 425 7 536 35 q 359 0 392 0 q 130 100 209 0 q 60 332 60 190 q 220 658 60 573 q 348 687 274 687 z "},"h":{"ha":784,"x_min":105,"x_max":680,"o":"m 571 438 q 475 594 571 561 q 411 603 447 603 q 338 590 374 603 q 274 550 301 577 q 214 390 214 494 l 214 51 q 197 12 214 25 q 158 0 179 0 q 121 13 137 0 q 105 51 105 26 l 105 918 q 122 955 105 942 q 160 967 139 967 q 198 955 181 967 q 214 918 214 942 l 214 559 q 369 679 255 649 q 447 687 404 687 q 532 673 489 687 q 608 628 575 659 q 680 429 680 559 l 680 51 q 663 12 680 25 q 625 0 645 0 q 588 13 605 0 q 571 51 571 26 l 571 438 z "},"i":{"ha":320,"x_min":86,"x_max":234,"o":"m 234 905 q 214 862 234 881 q 160 844 195 844 q 105 862 125 844 q 86 905 86 881 q 105 949 86 930 q 160 969 125 969 q 214 949 195 969 q 234 905 234 930 m 107 617 q 124 658 107 643 q 156 672 141 672 q 181 668 172 672 q 197 658 190 665 q 214 617 214 645 l 214 55 q 197 14 214 28 q 159 0 179 0 q 123 13 139 0 q 107 55 107 26 l 107 617 z "},"j":{"ha":322,"x_min":-32,"x_max":236,"o":"m -4 -243 q -32 -207 -32 -239 q -23 -182 -32 -193 q 13 -171 -14 -171 q 61 -167 40 -171 q 91 -151 81 -164 q 107 -49 107 -134 l 107 617 q 125 658 107 643 q 158 672 142 672 q 184 668 174 672 q 200 658 193 665 q 216 617 216 645 l 216 -23 q 212 -130 216 -86 q 190 -200 207 -174 q 35 -253 155 -253 q 7 -249 18 -253 q -4 -243 -4 -244 m 236 905 q 216 862 236 881 q 162 844 197 844 q 108 862 127 844 q 90 905 90 881 q 109 949 90 930 q 163 969 128 969 q 216 949 197 969 q 236 905 236 930 z "},"k":{"ha":672,"x_min":113,"x_max":642,"o":"m 222 362 l 222 55 q 204 14 222 28 q 166 0 186 0 q 129 13 146 0 q 113 55 113 26 l 113 912 q 130 953 113 939 q 163 967 148 967 q 187 963 178 967 q 204 953 197 960 q 222 912 222 935 l 222 399 l 527 656 q 563 672 543 672 q 596 659 582 672 q 610 635 610 647 q 596 600 610 610 l 334 382 l 629 76 q 642 49 642 60 q 637 30 642 39 q 626 14 633 21 q 590 0 608 0 q 554 18 571 0 l 222 362 z "},"l":{"ha":320,"x_min":107,"x_max":214,"o":"m 107 912 q 124 953 107 939 q 156 967 141 967 q 181 963 172 967 q 197 953 190 960 q 214 912 214 939 l 214 55 q 197 14 214 28 q 159 0 179 0 q 123 13 139 0 q 107 55 107 26 l 107 912 z "},"m":{"ha":1246,"x_min":104,"x_max":1145,"o":"m 661 543 q 905 687 745 687 q 1125 549 1069 687 q 1145 429 1145 499 l 1145 51 q 1127 12 1145 25 q 1089 0 1109 0 q 1052 12 1069 0 q 1036 51 1036 25 l 1036 436 q 939 594 1036 561 q 876 603 911 603 q 807 592 842 603 q 742 556 772 580 q 679 392 679 501 l 679 51 q 661 12 679 25 q 623 0 643 0 q 586 13 603 0 q 570 51 570 26 l 570 436 q 473 594 570 561 q 409 603 445 603 q 337 590 373 603 q 274 550 301 577 q 214 390 214 494 l 214 51 q 197 12 214 25 q 158 0 179 0 q 120 12 137 0 q 104 51 104 25 l 104 622 q 121 659 104 647 q 155 672 139 672 q 179 669 171 672 q 197 661 188 666 q 214 624 214 645 l 214 561 q 369 679 253 650 q 440 687 404 687 q 661 543 608 687 z "},"n":{"ha":784,"x_min":105,"x_max":680,"o":"m 105 622 q 122 659 105 647 q 169 672 139 672 q 214 561 225 672 q 369 679 255 645 q 447 687 404 687 q 532 672 489 687 q 608 626 575 658 q 680 424 680 557 l 680 51 q 663 12 680 25 q 625 0 645 0 q 588 13 605 0 q 571 51 571 26 l 571 432 q 475 592 571 556 q 411 603 447 603 q 338 589 374 603 q 274 552 301 575 q 214 390 214 499 l 214 51 q 197 12 214 25 q 158 0 179 0 q 121 13 137 0 q 105 51 105 26 l 105 622 z "},"o":{"ha":788,"x_min":58,"x_max":730,"o":"m 58 334 q 78 462 58 397 q 141 577 98 527 q 394 687 232 687 q 647 577 552 687 q 730 336 730 480 q 647 95 730 193 q 394 -14 554 -14 q 141 95 230 -14 q 58 334 58 195 m 174 334 q 186 244 174 292 q 225 158 199 197 q 394 69 287 69 q 563 158 503 69 q 612 336 612 234 q 563 513 612 436 q 394 603 505 603 q 225 513 285 603 q 174 334 174 438 z "},"p":{"ha":788,"x_min":93,"x_max":726,"o":"m 202 559 q 373 679 251 652 q 463 687 408 687 q 572 657 519 687 q 660 577 626 626 q 710 464 694 527 q 726 332 726 401 q 709 201 726 264 q 658 91 693 139 q 441 -14 582 -14 q 320 9 366 -14 q 202 111 243 49 l 202 -207 q 185 -244 202 -232 q 148 -257 169 -257 q 110 -244 127 -257 q 93 -207 93 -232 l 93 622 q 110 659 93 647 q 155 672 127 672 q 202 559 213 672 m 247 525 q 235 507 247 525 q 213 440 223 489 q 202 337 202 390 q 214 236 202 283 q 253 151 227 188 q 415 69 309 69 q 570 155 519 69 q 612 338 612 227 q 512 578 612 512 q 415 603 475 603 q 313 582 355 603 q 247 525 271 561 z "},"q":{"ha":788,"x_min":62,"x_max":694,"o":"m 589 559 q 589 624 589 559 q 607 660 591 649 q 642 672 622 672 q 678 659 661 672 q 694 622 694 647 l 694 -206 q 677 -243 694 -230 q 638 -255 659 -255 q 601 -243 617 -255 q 585 -206 585 -232 l 585 111 q 482 16 549 51 q 347 -14 422 -14 q 219 14 273 -14 q 130 91 165 42 q 78 202 95 139 q 62 332 62 265 q 77 463 62 399 q 127 577 93 527 q 341 687 204 687 q 545 615 462 687 q 589 559 571 592 m 535 150 q 548 168 535 150 q 573 235 561 186 q 585 337 585 283 q 575 440 585 390 q 541 524 564 489 q 369 603 489 603 q 214 515 265 603 q 176 338 176 445 q 278 93 176 158 q 372 69 315 69 q 469 91 429 69 q 535 150 510 114 z "},"r":{"ha":480,"x_min":105,"x_max":454,"o":"m 164 672 q 214 621 214 672 l 214 561 q 399 687 258 687 q 440 672 425 687 q 454 640 454 658 q 440 608 454 622 q 390 594 427 594 q 319 579 353 594 q 262 538 285 564 q 214 383 214 480 l 214 51 q 197 13 214 26 q 164 0 179 0 q 138 3 148 0 q 121 11 128 5 q 105 51 105 25 l 105 621 q 122 658 105 645 q 164 672 139 672 z "},"s":{"ha":694,"x_min":76,"x_max":633,"o":"m 346 603 q 193 506 193 603 q 236 440 193 464 q 366 400 267 424 q 515 360 464 376 q 600 302 566 345 q 633 203 633 260 q 608 105 633 146 q 541 37 584 63 q 336 -14 462 -14 q 158 18 239 -14 q 98 53 121 33 q 76 89 76 72 q 88 117 76 105 q 116 128 100 128 q 153 119 132 128 q 204 98 174 109 q 336 69 285 69 q 417 76 387 69 q 471 98 447 83 q 524 190 524 132 q 431 288 524 257 q 355 309 396 301 q 276 325 315 316 q 203 346 237 334 q 141 380 169 359 q 83 501 83 422 q 165 647 83 598 q 350 687 234 687 q 533 650 462 687 q 591 587 591 621 q 578 563 591 573 q 554 552 566 552 q 516 562 531 552 q 484 579 501 571 q 447 592 468 587 q 346 603 406 603 z "},"t":{"ha":478,"x_min":33,"x_max":461,"o":"m 461 40 q 336 -14 461 -14 q 200 35 241 -14 q 158 216 158 90 l 158 591 l 77 591 q 45 603 56 591 q 33 631 33 615 q 44 659 33 647 q 77 672 55 672 l 162 672 l 171 863 q 188 897 172 884 q 222 909 204 909 q 267 865 267 909 l 267 672 l 389 672 q 421 659 410 672 q 432 631 432 647 q 421 603 432 615 q 389 591 410 591 l 267 591 l 267 276 q 277 119 267 148 q 303 79 287 90 q 350 69 320 69 l 422 76 q 451 63 441 76 q 461 40 461 51 z "},"u":{"ha":784,"x_min":105,"x_max":680,"o":"m 680 51 q 663 12 680 25 q 630 0 645 0 q 606 3 615 0 q 589 11 596 5 q 571 49 571 26 l 571 111 q 415 -7 529 19 q 339 -14 382 -14 q 254 0 297 -14 q 178 46 211 14 q 105 248 105 116 l 105 621 q 122 659 105 647 q 160 672 139 672 q 198 659 181 672 q 214 621 214 647 l 214 241 q 251 107 214 144 q 369 69 290 69 q 552 176 503 69 q 571 262 568 213 l 571 621 q 589 658 571 645 q 627 672 607 672 q 664 659 647 672 q 680 621 680 647 l 680 51 z "},"v":{"ha":696,"x_min":35,"x_max":661,"o":"m 447 83 q 409 19 429 39 q 352 0 389 0 q 295 19 316 0 q 257 83 274 39 l 39 603 q 35 623 35 614 q 40 643 35 633 q 53 658 44 652 q 88 672 69 672 q 139 638 125 672 l 352 125 l 556 638 q 605 672 570 672 q 658 643 643 672 q 661 624 661 635 q 658 603 661 614 l 447 83 z "},"w":{"ha":1164,"x_min":42,"x_max":1123,"o":"m 585 570 l 397 60 q 320 0 378 0 q 250 56 265 0 l 46 601 q 42 623 42 614 q 47 642 42 633 q 58 658 51 650 q 91 672 72 672 q 144 635 134 672 l 327 118 l 512 619 q 589 672 531 672 q 666 619 647 672 l 844 123 l 1023 635 q 1071 672 1037 672 q 1108 658 1092 672 q 1123 629 1123 643 q 1120 601 1123 614 l 914 56 q 842 0 898 0 q 772 60 784 0 l 585 570 z "},"x":{"ha":700,"x_min":58,"x_max":642,"o":"m 281 345 l 86 589 q 76 616 76 603 q 81 639 76 629 q 95 656 86 649 q 128 672 113 672 q 178 649 158 672 l 357 413 l 540 652 q 577 672 556 672 q 613 658 598 672 q 628 629 628 645 q 617 600 628 612 l 422 346 l 631 81 q 642 55 642 67 q 637 33 642 42 q 624 16 633 23 q 587 0 605 0 q 540 23 559 0 l 345 280 l 148 19 q 117 0 134 0 q 91 4 100 0 q 74 14 81 9 q 58 45 58 28 q 67 74 58 62 l 281 345 z "},"y":{"ha":696,"x_min":32,"x_max":665,"o":"m 299 7 l 37 601 q 33 621 32 610 q 70 668 33 656 q 95 672 81 672 q 142 638 128 672 l 353 128 l 563 638 q 610 672 578 675 q 648 658 631 672 q 665 629 665 645 q 659 603 665 612 l 318 -227 q 269 -264 301 -264 q 218 -234 236 -264 q 213 -214 213 -225 q 216 -193 213 -204 l 299 7 z "},"z":{"ha":631,"x_min":53,"x_max":585,"o":"m 534 90 q 568 76 557 90 q 578 44 578 62 q 567 13 578 26 q 534 0 556 0 l 111 0 q 68 15 83 0 q 53 46 53 30 q 69 95 53 76 l 448 582 l 105 582 q 73 596 84 582 q 62 628 62 610 q 72 658 62 645 q 105 672 83 672 l 522 672 q 569 658 552 672 q 585 626 585 643 q 568 577 585 601 l 192 90 l 534 90 z "},"{":{"ha":413,"x_min":11,"x_max":403,"o":"m 265 47 q 322 -55 265 -55 l 364 -55 q 393 -69 383 -55 q 403 -98 403 -83 q 393 -127 403 -114 q 364 -141 383 -141 l 285 -141 q 197 -98 236 -141 q 155 14 155 -53 l 155 216 q 141 326 155 297 q 107 367 127 355 q 61 382 88 380 q 22 398 33 383 q 11 430 11 413 q 22 461 11 447 q 61 476 33 475 q 107 491 88 478 q 137 527 127 505 q 155 645 155 563 l 155 849 q 197 960 155 916 q 285 1004 236 1004 l 364 1004 q 393 990 383 1004 q 403 960 403 976 q 393 931 403 944 q 364 918 383 918 l 322 918 q 265 816 265 918 l 265 621 q 192 448 265 506 q 169 431 176 436 q 253 323 225 403 q 265 241 265 288 l 265 47 z "},"|":{"ha":308,"x_min":107,"x_max":202,"o":"m 107 956 q 122 992 107 981 q 155 1002 137 1002 q 187 991 172 1002 q 202 956 202 979 l 202 -255 q 187 -291 202 -280 q 155 -302 172 -302 q 122 -291 137 -302 q 107 -255 107 -280 l 107 956 z "},"}":{"ha":413,"x_min":11,"x_max":403,"o":"m 148 816 q 91 918 148 918 l 49 918 q 20 931 30 918 q 11 960 11 944 q 20 990 11 976 q 49 1004 30 1004 l 128 1004 q 218 960 178 1004 q 258 849 258 916 l 258 645 q 273 534 258 563 q 306 491 287 505 q 352 476 325 478 q 391 461 380 475 q 403 429 403 447 q 391 397 403 411 q 352 382 380 383 q 306 367 325 380 q 276 334 287 355 q 258 216 258 297 l 258 14 q 218 -98 258 -53 q 128 -141 178 -141 l 49 -141 q 20 -127 30 -141 q 11 -98 11 -114 q 20 -69 11 -83 q 49 -55 30 -55 l 91 -55 q 148 47 148 -55 l 148 241 q 190 380 148 323 q 244 431 216 417 q 222 448 239 436 q 190 482 206 461 q 148 621 148 541 l 148 816 z "},"~":{"ha":907,"x_min":244,"x_max":635,"o":"m 570 902 q 577 913 570 902 q 600 925 584 925 q 626 915 617 925 q 635 897 635 905 l 635 886 q 633 879 635 883 q 520 800 601 800 q 396 840 492 800 q 359 847 376 847 q 312 825 331 847 q 279 803 294 803 q 254 812 264 803 q 244 831 244 821 q 255 863 244 840 q 293 905 265 886 q 352 925 320 925 q 408 918 385 925 q 452 902 431 911 q 531 879 506 879 q 570 902 556 879 z "}," ":{"ha":382,"x_min":0,"x_max":0,"o":""},"¢":{"ha":698,"x_min":56,"x_max":617,"o":"m 571 107 l 580 109 q 607 96 596 109 q 617 65 617 83 q 596 33 617 47 q 545 7 575 18 q 422 -18 491 -12 l 422 -155 q 409 -186 422 -176 q 379 -197 396 -197 q 349 -186 362 -197 q 336 -155 336 -176 l 336 -18 q 127 98 202 -4 q 56 336 56 197 q 134 570 56 468 q 336 689 207 672 l 336 832 q 349 864 336 853 q 379 876 362 876 q 409 865 396 876 q 422 832 422 854 l 422 689 q 580 643 524 682 q 598 614 598 629 q 588 585 598 600 q 570 571 578 571 q 538 580 561 571 q 408 605 461 605 q 313 589 355 605 q 239 540 271 573 q 171 338 171 468 q 232 144 171 214 q 389 72 294 72 q 571 107 485 72 z "},"©":{"ha":1122,"x_min":98,"x_max":1036,"o":"m 692 102 q 662 94 692 102 q 568 86 633 86 q 443 102 503 86 q 331 148 383 118 q 236 218 278 178 q 162 309 193 258 q 98 536 98 408 q 236 854 98 719 q 443 969 320 935 q 568 985 503 985 q 692 969 633 985 q 803 924 751 953 q 898 854 854 895 q 971 762 941 812 q 1019 655 1002 712 q 1036 536 1036 598 q 1019 417 1036 475 q 971 309 1002 359 q 898 218 941 258 q 803 148 854 178 q 692 102 751 118 m 178 536 q 207 387 178 455 q 289 268 237 318 q 412 190 341 218 q 568 162 483 162 q 723 190 652 162 q 844 267 793 218 q 953 536 953 373 q 844 803 953 701 q 568 909 733 909 q 288 803 401 909 q 178 536 178 698 m 596 338 q 707 371 643 338 q 723 374 712 374 q 741 366 733 374 q 749 345 749 357 q 643 278 749 302 q 566 271 608 271 q 476 288 524 271 q 394 341 429 306 q 311 540 311 418 q 390 738 311 665 q 573 803 461 803 q 668 791 624 803 q 756 735 756 765 q 748 711 756 723 q 730 700 740 700 q 701 710 721 700 q 599 737 654 737 q 509 725 543 737 q 450 689 475 714 q 396 541 396 640 q 454 390 396 445 q 596 338 508 338 z "},"®":{"ha":1123,"x_min":88,"x_max":1041,"o":"m 392 723 q 418 770 392 756 q 443 774 429 774 l 617 774 q 793 696 767 774 q 802 633 802 670 q 790 572 802 596 q 758 533 779 549 q 647 498 721 505 l 772 318 q 777 298 777 309 q 765 276 777 287 q 742 265 752 265 q 710 281 719 265 l 570 496 l 469 496 l 469 301 q 457 274 469 283 q 431 265 445 265 q 404 274 417 265 q 392 301 392 283 l 392 723 m 469 709 l 469 561 l 601 561 q 679 570 658 561 q 721 638 721 587 q 647 707 721 696 q 603 709 626 709 l 469 709 m 566 63 q 440 79 501 63 q 325 125 378 95 q 229 197 273 155 q 153 289 185 239 q 105 397 121 339 q 88 517 88 455 q 105 637 88 578 q 153 747 121 696 q 229 839 185 798 q 325 911 273 881 q 566 974 438 974 q 805 911 693 974 q 976 747 912 851 q 1041 517 1041 642 q 900 197 1041 334 q 566 63 765 63 m 172 517 q 285 246 172 353 q 566 139 394 139 q 847 245 737 139 q 956 517 956 352 q 847 788 956 680 q 566 895 735 895 q 284 787 396 895 q 172 517 172 679 z "},"¼":{"ha":1046,"x_min":104,"x_max":993,"o":"m 382 -33 q 351 -60 371 -60 q 319 -50 331 -60 q 308 -25 308 -40 q 309 -9 308 -18 l 633 944 q 664 972 643 972 q 696 963 684 972 q 709 942 709 953 q 705 921 709 928 l 382 -33 m 800 536 q 856 570 819 570 q 890 557 876 570 q 904 519 904 545 l 904 178 l 967 178 q 986 171 979 178 q 993 154 993 164 q 986 136 993 144 q 967 128 979 128 l 904 128 l 904 33 q 893 9 904 18 q 870 0 883 0 q 848 9 858 0 q 839 33 839 18 l 839 128 l 603 128 q 575 140 585 128 q 564 164 564 151 q 573 190 564 178 l 800 536 m 626 178 l 839 178 l 839 505 l 626 178 m 144 803 q 127 798 137 798 q 111 807 118 798 q 104 826 104 816 q 116 846 104 837 l 250 932 q 270 937 258 937 q 291 928 281 937 q 301 902 301 919 l 301 417 q 290 393 301 401 q 267 385 280 385 q 244 393 255 385 q 234 417 234 401 l 234 861 l 144 803 z "},"½":{"ha":1057,"x_min":104,"x_max":983,"o":"m 380 -33 q 350 -60 369 -60 q 318 -50 331 -60 q 306 -29 306 -40 q 309 -9 306 -18 l 631 944 q 662 972 642 972 q 694 963 682 972 q 707 942 707 953 q 703 921 707 928 l 380 -33 m 802 510 q 781 510 802 510 q 720 490 759 510 q 669 469 680 469 q 651 476 658 469 q 645 494 645 483 q 661 519 645 505 q 700 543 677 533 q 797 568 756 568 q 870 559 839 568 q 925 534 902 550 q 976 432 976 496 q 872 232 976 353 q 772 128 825 176 q 694 58 719 81 l 953 58 q 975 48 967 58 q 983 28 983 39 q 975 9 983 18 q 953 0 967 0 l 661 0 q 623 11 635 0 q 612 35 612 21 q 635 83 612 60 q 686 131 658 105 q 743 186 714 156 q 801 249 772 216 q 853 313 830 281 q 904 427 904 383 q 872 489 904 464 q 802 510 844 510 m 144 803 q 127 798 137 798 q 111 807 118 798 q 104 826 104 816 q 116 846 104 837 l 250 932 q 270 937 258 937 q 291 928 281 937 q 301 902 301 919 l 301 417 q 290 393 301 401 q 267 385 280 385 q 244 393 255 385 q 234 417 234 401 l 234 861 l 144 803 z "},"¾":{"ha":1086,"x_min":39,"x_max":1004,"o":"m 183 694 q 260 714 234 694 q 309 798 309 747 q 274 870 309 842 q 211 895 246 895 q 155 890 176 895 q 116 881 134 886 q 64 868 76 868 q 46 877 53 868 q 39 898 39 886 q 55 921 39 911 q 95 939 72 932 q 186 953 144 953 q 261 944 229 953 q 320 916 294 935 q 376 800 376 872 q 309 686 376 724 q 267 670 290 675 q 378 577 350 654 q 387 517 387 552 q 372 453 387 482 q 331 404 357 424 q 200 367 280 367 q 63 403 118 367 q 46 425 46 413 q 54 446 46 438 q 70 454 62 454 q 91 448 79 454 q 200 425 144 425 q 287 450 255 425 q 318 512 318 475 q 308 572 318 550 q 280 608 297 594 q 188 640 243 640 l 158 640 q 137 648 144 640 q 130 666 130 656 q 137 686 130 677 q 158 694 144 694 l 183 694 m 403 -33 q 372 -60 392 -60 q 340 -50 352 -60 q 329 -25 329 -40 q 331 -9 329 -18 l 652 944 q 691 972 663 972 q 716 963 705 972 q 728 941 728 953 q 726 921 728 928 l 403 -33 m 810 536 q 867 570 830 570 q 900 557 886 570 q 914 519 914 545 l 914 178 l 977 178 q 997 171 990 178 q 1004 154 1004 164 q 998 136 1004 144 q 977 128 992 128 l 914 128 l 914 33 q 904 9 914 18 q 881 0 893 0 q 859 9 868 0 q 849 33 849 18 l 849 128 l 614 128 q 585 140 596 128 q 575 164 575 151 q 584 190 575 178 l 810 536 m 635 178 l 849 178 l 849 505 l 635 178 z "},"×":{"ha":709,"x_min":86,"x_max":615,"o":"m 287 278 l 109 471 q 102 491 102 478 q 119 524 102 513 q 156 534 135 534 q 192 517 176 534 l 353 334 l 520 519 q 551 534 533 534 q 584 524 570 534 q 598 500 598 513 q 591 478 598 487 l 411 280 l 601 72 q 608 42 615 58 q 594 21 601 26 q 520 26 552 -9 l 341 229 l 165 25 q 133 9 151 9 q 100 20 114 9 q 86 44 86 32 q 93 67 86 56 l 287 278 z "},"÷":{"ha":872,"x_min":63,"x_max":812,"o":"m 113 257 q 63 306 63 257 q 113 355 63 355 l 761 355 q 812 308 812 355 q 761 257 812 257 l 113 257 m 436 461 q 397 461 436 461 q 359 531 359 461 q 436 601 359 601 q 513 531 513 601 q 436 461 513 461 m 434 11 q 395 11 434 11 q 355 81 355 11 q 434 151 355 151 q 513 81 513 151 q 434 11 513 11 z "},"ॐ":{"ha":1083,"x_min":51,"x_max":1013,"o":"m 844 716 q 1013 441 1013 716 q 961 221 1013 302 q 818 139 909 139 q 730 178 756 139 q 703 311 703 216 l 703 359 q 656 452 703 452 q 550 408 615 452 q 636 199 636 292 q 582 54 636 105 q 434 2 527 2 q 178 135 287 2 q 51 466 69 269 l 84 476 q 201 193 113 302 q 404 83 290 83 q 509 128 466 83 q 552 237 552 174 q 457 454 552 355 q 341 353 408 385 l 299 457 q 448 603 448 499 q 355 682 448 682 q 213 642 287 682 l 171 744 q 308 772 230 772 q 440 716 385 772 q 494 570 494 659 q 476 496 494 531 l 499 476 q 665 559 585 559 q 686 557 672 559 q 844 716 716 716 m 712 547 q 749 466 749 527 l 749 348 q 823 227 749 227 q 926 286 884 227 q 967 432 967 345 q 929 572 967 519 q 832 626 891 626 q 712 547 751 626 m 374 877 l 403 898 q 546 819 464 819 q 684 898 628 819 l 770 828 q 598 738 686 738 q 374 877 464 738 m 561 1004 l 626 937 l 561 876 l 498 942 l 561 1004 z "},"॑":{"ha":0,"x_min":-371,"x_max":-290,"o":"m -290 1317 l -371 1317 l -371 1911 l -290 1911 l -290 1317 z "},"॒":{"ha":0,"x_min":-916,"x_max":-83,"o":"m -83 -585 l -916 -585 l -916 -513 l -83 -513 l -83 -585 z "},"।":{"ha":309,"x_min":102,"x_max":200,"o":"m 200 -12 l 102 -12 l 102 610 l 200 610 l 200 -12 z "},"॥":{"ha":556,"x_min":105,"x_max":440,"o":"m 204 -11 l 105 -11 l 105 612 l 204 612 l 204 -11 m 440 -12 l 339 -12 l 339 610 l 440 610 l 440 -12 z "},"ఁ":{"ha":573,"x_min":0,"x_max":462,"o":"m 403 589 q 332 596 360 596 q 145 527 220 596 q 70 345 70 457 q 147 161 70 232 q 339 90 223 90 q 379 93 362 90 q 404 98 396 97 q 442 89 422 109 q 462 40 462 69 q 419 -2 462 7 q 320 -11 376 -11 q 98 77 193 -11 q 0 318 0 176 q 91 552 0 461 q 329 643 181 643 l 404 635 q 438 609 438 629 q 403 589 438 589 z "},"ం":{"ha":767,"x_min":0,"x_max":647,"o":"m 321 642 q 391 642 321 642 q 554 550 461 642 q 647 315 647 459 q 554 80 647 171 q 324 -11 461 -11 q 94 85 188 -11 q 0 322 0 181 q 91 552 0 462 q 321 642 181 642 m 324 104 q 378 104 324 104 q 501 166 431 104 q 571 338 571 229 q 502 516 571 448 q 326 584 432 584 q 147 521 220 584 q 74 344 74 459 q 146 166 74 229 q 324 104 218 104 z "},"ః":{"ha":415,"x_min":0,"x_max":287,"o":"m 287 547 q 245 445 287 487 q 144 403 204 403 q 42 445 84 403 q 0 547 0 487 q 42 648 0 607 q 144 689 84 689 q 245 648 204 689 q 287 547 287 607 m 287 134 q 245 32 287 74 q 146 -11 204 -11 q 44 32 88 -11 q 0 132 0 74 q 43 233 0 190 q 144 276 86 276 q 244 235 202 276 q 287 134 287 193 m 141 473 q 207 500 178 473 q 236 563 236 527 q 207 625 236 600 q 140 650 178 650 q 76 626 102 650 q 49 564 49 601 q 76 500 49 527 q 141 473 104 473 m 141 60 q 206 86 176 60 q 236 150 236 113 q 207 213 236 188 q 141 237 178 237 q 76 213 104 237 q 49 150 49 188 q 77 86 49 113 q 141 60 105 60 z "},"అ":{"ha":932,"x_min":0,"x_max":816,"o":"m 570 308 q 452 503 452 378 q 496 620 452 575 q 610 665 540 665 q 760 583 705 665 q 816 383 816 501 q 689 88 816 197 q 401 -11 571 -11 q 115 85 230 -11 q 0 357 0 181 q 62 570 0 476 q 223 665 123 665 q 333 619 297 665 q 369 509 369 573 q 325 404 369 445 q 225 364 281 364 q 132 403 169 364 q 95 524 95 441 q 58 387 58 461 q 148 167 58 244 q 382 90 237 90 q 665 165 568 90 q 761 378 761 241 q 731 517 761 461 q 624 589 693 589 q 547 554 575 589 q 519 457 519 519 q 580 351 519 396 q 642 285 642 306 q 633 263 642 276 q 614 250 624 250 l 248 250 q 227 258 237 250 q 216 274 216 265 q 237 304 216 304 l 570 308 m 227 431 q 287 456 262 431 q 313 518 313 482 q 287 585 313 554 q 226 615 260 615 q 164 585 192 615 q 137 519 137 556 q 164 456 137 482 q 227 431 192 431 z "},"ఆ":{"ha":916,"x_min":0,"x_max":795,"o":"m 724 316 q 566 248 640 248 l 236 248 q 222 259 230 248 q 214 276 214 271 q 244 308 214 308 l 541 308 q 675 353 600 308 l 610 369 q 498 420 540 385 q 455 521 455 455 q 498 628 455 587 q 620 668 540 668 q 746 616 700 668 q 793 476 793 564 q 761 360 793 422 q 795 257 795 325 q 677 60 795 132 q 422 -9 570 -9 q 128 77 241 -9 q 0 366 0 176 q 59 575 0 485 q 218 665 118 665 q 327 626 285 665 q 369 503 369 587 q 326 407 369 445 q 226 369 283 369 q 129 409 169 369 q 90 526 90 448 q 57 440 62 457 q 53 387 53 422 q 162 156 53 234 q 431 86 258 86 q 650 135 563 86 q 738 267 738 185 q 724 316 738 292 m 222 431 q 240 431 222 431 q 284 458 257 431 q 311 521 311 485 q 286 584 311 557 q 224 610 260 610 q 163 584 188 610 q 137 521 137 557 q 163 458 137 485 q 222 431 188 431 m 712 392 q 738 470 738 422 q 705 557 738 519 q 621 596 672 596 q 547 573 571 596 q 522 512 522 550 q 607 418 522 438 q 712 392 658 404 z "},"ఇ":{"ha":833,"x_min":0,"x_max":788,"o":"m 638 248 q 666 392 666 318 q 624 527 666 466 q 513 589 582 589 q 411 560 445 589 q 367 494 376 531 q 356 445 359 457 q 339 432 353 432 q 316 454 322 432 q 302 505 304 503 q 257 567 292 538 q 174 596 222 596 q 91 565 127 596 q 55 487 55 534 q 70 441 55 466 q 86 413 86 417 q 70 394 86 401 q 20 434 40 394 q 0 520 0 475 q 44 632 0 592 q 155 672 88 672 q 334 519 299 672 q 503 665 392 665 q 665 580 614 665 q 714 391 714 503 q 680 207 714 280 q 788 -21 788 88 q 740 -86 788 -86 q 700 -39 700 -86 l 700 39 q 675 118 694 84 q 656 156 670 135 q 520 34 605 77 q 322 -9 434 -9 q 128 37 209 -9 q 33 178 33 84 q 323 346 33 346 q 603 271 483 346 l 638 248 m 607 204 q 318 295 483 295 q 160 274 229 295 q 91 200 91 253 q 167 118 91 146 q 309 98 223 98 q 607 204 489 98 z "},"ఈ":{"ha":1276,"x_min":0,"x_max":1164,"o":"m 1003 47 q 970 47 1003 47 q 892 94 937 47 q 847 208 847 141 q 900 329 847 276 l 779 329 q 690 85 779 181 q 448 -11 601 -11 q 197 97 295 -11 q 116 301 116 190 q 120 329 116 318 l 23 329 q 0 354 0 329 q 19 380 0 380 l 121 380 q 185 517 132 454 q 350 628 244 598 q 267 677 306 654 q 225 735 225 707 q 242 782 225 763 q 295 802 258 802 q 356 734 311 802 q 424 640 401 666 q 652 863 476 689 q 794 985 777 985 q 825 966 810 985 q 840 921 840 948 q 726 816 840 905 q 496 635 612 726 q 775 380 717 601 l 951 380 q 1033 418 992 380 q 1074 501 1074 457 q 1002 596 1074 596 q 963 588 972 596 q 948 569 955 580 q 932 523 942 557 q 898 489 921 489 q 858 542 858 489 q 896 629 858 596 q 995 661 934 661 q 1097 623 1057 661 q 1137 534 1137 585 q 1122 454 1137 482 q 1064 374 1106 425 q 1130 327 1109 352 q 1164 214 1164 285 q 1116 96 1164 144 q 1003 47 1069 47 m 716 380 q 621 537 689 482 q 449 592 552 592 q 274 535 346 592 q 188 380 202 478 l 716 380 m 1099 232 q 1072 298 1099 271 q 1007 325 1044 325 q 945 299 970 325 q 919 234 919 273 q 945 167 919 195 q 1009 139 970 139 q 1073 166 1048 139 q 1099 232 1099 193 m 714 329 l 188 329 q 268 157 188 220 q 455 95 348 95 q 638 157 563 95 q 714 329 714 220 z "},"ఉ":{"ha":898,"x_min":0,"x_max":791,"o":"m 153 292 q 281 98 153 98 q 393 184 367 98 q 429 269 418 269 q 469 183 436 269 q 605 97 501 97 q 688 123 652 97 q 724 188 724 149 q 709 246 724 227 q 670 265 693 265 q 635 256 647 265 q 614 246 622 246 q 596 258 605 246 q 587 285 587 269 q 603 315 587 301 q 674 331 626 331 q 757 282 723 331 q 791 164 791 234 q 742 40 791 93 q 621 -14 693 -14 q 429 162 462 -14 q 371 38 415 86 q 267 -11 327 -11 q 120 71 176 -11 q 65 271 65 153 q 71 331 65 295 q 79 383 77 366 l 26 383 q 0 417 0 383 q 23 441 4 441 l 100 441 q 222 588 135 533 q 410 643 309 643 q 378 754 394 703 q 373 798 373 777 q 387 838 373 819 q 429 856 401 856 q 483 798 483 856 q 467 730 483 784 q 447 643 450 675 q 620 611 536 643 q 703 531 703 578 q 656 496 703 496 q 590 546 647 496 q 432 596 533 596 q 178 438 260 596 l 744 438 q 765 403 765 438 q 740 383 765 383 l 160 383 q 153 315 153 346 l 153 292 z "},"ఊ":{"ha":1292,"x_min":0,"x_max":1181,"o":"m 1016 645 q 951 585 951 645 q 940 559 951 573 q 912 545 928 545 q 885 559 897 545 q 874 592 874 573 q 912 681 874 647 q 1016 716 951 716 q 1116 676 1081 716 q 1152 583 1152 636 q 1131 495 1152 529 q 1072 427 1111 461 q 1157 368 1132 404 q 1181 265 1181 332 q 1136 148 1181 197 q 1023 98 1090 98 q 909 143 956 98 q 861 253 861 188 q 874 320 861 292 q 916 382 886 348 l 160 382 q 151 295 151 323 q 181 153 151 207 q 291 98 211 98 q 396 181 371 98 q 428 264 420 264 q 470 179 436 264 q 605 95 505 95 q 692 122 654 95 q 730 188 730 149 q 670 265 730 265 q 638 256 650 265 q 618 246 626 246 q 601 258 610 246 q 592 283 592 269 q 670 331 592 331 q 762 283 728 331 q 796 164 796 236 q 746 39 796 91 q 624 -14 696 -14 q 432 153 469 -14 q 369 32 413 74 q 265 -11 325 -11 q 119 69 174 -11 q 63 262 63 149 q 81 382 63 311 l 28 382 q 0 406 0 382 q 7 427 0 417 q 23 438 14 438 l 97 438 q 325 631 174 592 q 301 732 316 680 q 285 786 285 784 q 302 832 285 814 q 345 849 320 849 q 396 784 396 849 q 357 638 396 754 q 448 642 420 642 l 491 642 q 473 707 483 668 q 454 786 454 765 q 512 849 454 849 q 549 829 534 849 q 563 784 563 809 q 546 710 563 759 q 526 633 529 661 q 629 605 587 626 q 700 531 700 573 q 659 489 700 489 q 589 541 647 489 q 429 592 531 592 q 181 438 257 592 l 997 438 q 1058 487 1043 468 q 1088 557 1088 517 q 1016 645 1088 645 m 1025 192 q 1043 192 1025 192 q 1088 220 1062 192 q 1115 287 1115 248 q 1089 354 1115 327 q 1026 382 1064 382 q 962 354 988 382 q 935 287 935 327 q 962 219 935 246 q 1025 192 988 192 z "},"ఋ":{"ha":1630,"x_min":0,"x_max":1515,"o":"m 1456 545 q 1515 271 1515 440 q 1451 85 1515 181 q 1268 -11 1387 -11 q 1099 137 1150 -11 q 891 -11 1025 -11 q 785 27 826 -11 q 717 137 744 65 q 522 -11 647 -11 q 425 28 468 -11 q 374 142 382 67 q 188 -11 329 -11 q 55 51 111 -11 q 0 180 0 113 q 34 298 0 248 q 128 362 69 348 q 253 392 188 376 q 327 474 327 415 q 298 558 327 533 q 223 584 269 584 q 144 553 178 584 q 111 473 111 522 q 97 442 111 455 q 61 429 83 429 q 26 447 39 429 q 14 487 14 466 q 69 603 14 564 q 206 642 123 642 q 332 598 288 642 q 376 483 376 554 q 230 328 376 359 q 84 218 84 297 q 195 93 84 93 q 328 176 288 93 q 374 258 367 258 q 414 175 382 258 q 527 91 447 91 q 651 152 608 91 q 694 324 694 213 q 635 494 694 436 q 522 545 589 545 l 498 545 q 437 552 454 545 q 420 592 420 559 q 439 637 420 626 q 505 649 457 649 q 687 548 622 649 q 751 290 751 447 l 745 232 q 874 95 761 95 q 1019 162 958 95 q 1079 318 1079 229 q 1033 475 1079 408 q 907 541 986 541 l 858 541 q 805 589 805 541 q 812 622 805 612 q 886 643 825 643 q 1072 545 1004 643 q 1134 283 1134 443 l 1127 225 q 1255 95 1146 95 q 1400 162 1340 95 q 1461 318 1461 229 q 1414 475 1461 408 q 1290 541 1368 541 l 1239 541 q 1187 589 1187 541 q 1194 622 1187 612 q 1268 643 1206 643 q 1456 545 1385 643 z "},"ఌ":{"ha":870,"x_min":0,"x_max":784,"o":"m 784 429 q 668 253 784 322 q 454 151 561 202 q 338 -12 338 86 q 369 -85 338 -53 q 450 -118 401 -118 q 556 -36 529 -118 q 622 46 584 46 q 657 26 643 46 q 670 -21 670 7 q 619 -130 670 -84 q 475 -176 568 -176 q 334 -125 382 -176 q 287 -4 287 -79 q 396 178 287 102 q 605 287 498 230 q 712 411 712 345 q 670 495 712 462 q 573 527 628 527 q 452 482 492 527 q 385 371 434 462 q 306 485 348 443 q 193 527 257 527 q 89 492 128 527 q 49 404 49 457 q 62 359 49 387 q 80 321 76 331 q 87 307 84 311 q 90 299 90 302 q 72 290 90 290 q 51 304 60 295 q 0 445 0 348 q 37 559 0 506 q 185 633 86 633 q 329 582 285 633 q 385 487 364 515 q 455 589 425 561 q 596 633 503 633 q 737 575 689 633 q 784 429 784 517 z "},"ఎ":{"ha":863,"x_min":0,"x_max":751,"o":"m 352 814 l 241 805 q 199 853 199 805 q 221 897 199 883 q 323 911 243 911 q 629 745 508 911 q 751 371 751 587 q 698 121 751 229 q 524 -11 636 -11 q 362 98 427 -11 q 188 -12 311 -12 q 56 44 113 -12 q 0 180 0 100 q 55 320 0 260 q 178 380 109 380 q 353 278 316 380 q 394 156 373 214 q 513 95 425 95 q 654 190 601 95 q 703 383 703 269 q 604 684 703 554 q 352 814 505 814 m 302 211 q 268 294 302 258 q 187 331 234 331 q 107 296 141 331 q 74 213 74 262 q 106 131 74 164 q 186 98 139 98 q 268 131 234 98 q 302 211 302 164 z "},"ఏ":{"ha":858,"x_min":0,"x_max":744,"o":"m 109 691 q 63 802 63 691 q 134 988 63 912 q 290 1064 204 1064 q 350 1055 332 1064 q 367 1020 367 1046 q 351 978 367 993 q 308 963 334 963 l 265 963 q 200 953 222 963 q 121 795 121 907 q 130 719 121 772 q 109 691 130 691 m 559 774 q 693 589 642 703 q 744 342 744 475 q 693 109 744 209 q 528 -11 631 -11 q 360 97 425 -11 q 286 13 327 39 q 178 -12 244 -12 q 55 43 111 -12 q 0 181 0 98 q 53 322 0 264 q 182 380 105 380 q 300 345 258 380 q 367 231 341 309 q 397 148 394 153 q 511 97 431 97 q 641 175 591 97 q 691 363 691 253 q 634 576 691 473 q 487 730 577 679 q 334 756 440 756 l 306 756 q 258 764 271 756 q 244 804 244 772 q 265 848 244 837 q 338 860 285 860 q 559 774 448 860 m 187 98 q 211 98 187 98 q 266 131 234 98 q 299 214 299 164 q 266 299 299 264 q 186 334 234 334 q 106 299 139 334 q 74 214 74 264 q 107 132 74 165 q 187 98 141 98 z "},"ఐ":{"ha":846,"x_min":0,"x_max":730,"o":"m 192 649 q 360 503 316 649 q 428 614 385 587 q 534 642 471 642 q 678 553 626 642 q 730 301 730 464 q 676 63 730 137 q 517 -11 622 -11 q 357 107 425 -11 q 181 -11 306 -11 q 55 47 109 -11 q 0 188 0 105 q 50 325 0 271 q 186 380 100 380 q 278 360 243 380 q 339 299 313 341 q 376 183 353 269 q 513 95 410 95 q 636 158 592 95 q 679 320 679 222 q 640 488 679 418 q 517 557 601 557 q 437 535 469 557 q 389 482 404 513 q 382 426 385 443 q 361 410 378 410 q 339 429 345 410 q 331 485 336 464 q 282 545 318 519 q 195 571 246 571 q 103 546 144 571 q 62 471 62 520 q 70 422 62 440 q 79 399 79 404 q 57 380 79 380 q 19 412 35 380 q 4 480 4 445 q 55 605 4 561 q 192 649 107 649 m 180 98 q 203 98 180 98 q 260 133 227 98 q 294 213 294 167 q 260 294 294 258 q 181 331 227 331 q 103 296 135 331 q 70 214 70 262 q 102 133 70 167 q 180 98 134 98 z "},"ఒ":{"ha":909,"x_min":0,"x_max":796,"o":"m 411 160 q 207 -11 360 -11 q 60 46 120 -11 q 0 195 0 102 q 114 371 0 332 q 244 403 199 392 q 309 429 290 415 q 343 501 343 454 q 309 582 343 549 q 227 615 276 615 q 123 530 148 615 q 60 445 98 445 q 7 511 7 445 q 59 624 7 577 q 198 672 111 672 q 339 628 285 672 q 394 496 394 584 q 288 355 394 392 q 229 345 269 348 q 158 332 188 341 q 105 296 128 323 q 81 216 81 269 q 122 131 81 164 q 232 98 164 98 q 346 153 301 98 q 413 262 380 209 q 427 250 420 262 q 454 186 440 216 q 516 125 476 151 q 612 98 556 98 q 706 134 668 98 q 744 218 744 171 q 725 294 744 265 q 707 327 707 322 q 726 339 707 339 q 774 290 751 339 q 796 188 796 241 q 742 46 796 102 q 608 -11 687 -11 q 411 160 450 -11 z "},"ఓ":{"ha":888,"x_min":0,"x_max":772,"o":"m 772 179 q 718 43 772 98 q 590 -12 665 -12 q 467 25 515 -12 q 396 155 418 63 q 202 -11 355 -11 q 60 44 120 -11 q 0 188 0 98 q 114 355 0 320 q 237 383 195 374 q 332 480 332 406 q 300 559 332 526 q 223 592 267 592 q 122 511 148 592 q 60 429 97 429 q 7 491 7 429 q 57 601 7 554 q 192 649 107 649 q 149 715 164 687 q 135 777 135 742 q 172 883 135 842 q 266 925 209 925 q 360 907 323 925 q 397 854 397 890 q 383 820 397 837 q 353 803 369 803 q 319 830 338 803 q 268 856 301 856 q 215 832 236 856 q 195 774 195 809 q 244 649 195 710 q 344 585 308 631 q 380 482 380 540 q 352 388 380 424 q 280 345 325 352 q 217 330 258 336 q 165 322 176 323 q 83 207 83 295 q 123 127 83 156 q 229 98 164 98 q 338 149 295 98 q 403 253 369 204 q 420 224 410 253 q 446 171 431 195 q 500 122 461 148 q 580 97 540 97 q 714 222 714 97 q 696 281 714 253 l 680 311 q 705 329 680 329 q 749 281 726 329 q 772 179 772 234 z "},"ఔ":{"ha":932,"x_min":0,"x_max":816,"o":"m 311 601 q 371 476 371 556 q 297 348 371 376 q 216 327 264 334 q 98 278 127 316 q 79 205 79 255 q 116 127 79 155 q 216 98 153 98 q 322 148 280 98 q 385 250 353 199 q 408 229 401 250 q 425 185 415 207 q 568 97 487 97 q 660 128 626 97 q 694 229 694 160 q 684 269 694 248 q 663 311 673 290 q 680 327 663 327 q 727 281 701 327 q 752 181 752 236 q 703 44 752 98 q 577 -11 654 -11 q 383 158 418 -11 q 312 30 362 70 q 187 -11 262 -11 q 56 46 113 -11 q 0 195 0 102 q 84 346 0 304 q 144 366 104 357 q 229 384 185 374 q 296 414 273 394 q 320 477 320 434 q 290 552 320 520 q 213 584 260 584 q 105 476 142 584 q 53 425 90 425 q 5 480 5 425 q 62 597 5 552 q 209 642 118 642 q 282 650 262 642 q 312 676 302 658 q 322 723 322 694 q 300 776 322 751 q 243 802 278 802 l 53 802 q 21 848 21 802 q 60 895 21 895 l 636 895 q 764 839 712 895 q 816 700 816 784 q 768 561 816 615 q 648 506 721 506 q 528 562 575 506 q 482 682 482 617 q 515 798 482 747 l 332 798 q 368 758 360 781 q 376 705 376 735 q 311 601 376 635 m 765 707 q 656 809 765 809 q 565 785 600 809 q 531 710 531 761 q 567 632 531 659 q 651 605 603 605 q 732 629 700 605 q 765 707 765 654 z "},"క":{"ha":745,"x_min":0,"x_max":610,"o":"m 255 640 l 309 642 q 497 607 417 642 q 577 508 577 571 q 531 462 577 462 q 458 526 512 462 q 299 589 404 589 q 160 563 220 589 q 81 472 81 529 q 153 392 81 415 q 299 376 207 376 q 524 345 461 376 q 608 195 608 304 q 512 37 608 86 q 304 -11 431 -11 q 89 45 178 -11 q 0 192 0 100 q 40 234 0 234 q 99 166 47 234 q 299 98 151 98 q 462 126 397 98 q 527 216 527 153 q 447 299 527 280 q 285 311 399 311 q 116 331 171 311 q 19 462 19 362 q 169 626 19 584 q 47 696 104 665 q 0 752 0 726 q 24 800 0 779 q 69 821 47 821 q 123 775 90 821 q 209 658 202 666 q 412 863 280 724 q 554 1004 545 1002 q 592 988 575 1011 q 610 937 610 965 q 492 830 610 925 q 255 640 374 735 z "},"ఖ":{"ha":849,"x_min":0,"x_max":737,"o":"m 338 230 q 350 354 350 285 q 336 477 350 424 q 269 564 322 531 q 281 512 276 534 q 242 412 281 455 q 148 369 202 369 q 54 403 93 369 q 14 487 14 436 q 185 642 14 642 q 408 311 408 642 q 380 160 408 230 q 443 105 411 123 q 522 88 475 88 q 684 301 684 88 q 636 469 684 410 q 522 527 587 527 q 479 542 498 527 q 461 577 461 557 q 525 633 461 633 q 636 584 589 633 q 737 274 737 480 q 681 61 737 132 q 522 -11 626 -11 q 360 102 418 -11 q 172 -11 302 -11 q 49 37 98 -11 q 0 159 0 84 q 44 279 0 234 q 151 323 88 323 q 254 302 214 323 q 338 230 294 280 m 156 431 q 172 431 156 431 q 210 455 188 431 q 232 512 232 480 q 210 570 232 545 q 156 596 188 596 q 99 570 123 596 q 76 512 76 545 q 99 455 76 480 q 156 431 123 431 m 318 179 q 252 241 285 222 q 169 260 220 260 q 65 179 65 260 q 99 111 65 134 q 178 88 134 88 q 318 179 260 88 m 425 -83 q 367 -151 425 -151 q 325 -134 345 -151 q 306 -85 306 -118 q 334 -4 306 -53 q 367 55 362 44 q 397 -3 369 46 q 425 -83 425 -51 z "},"గ":{"ha":809,"x_min":0,"x_max":703,"o":"m 70 -11 q 0 142 0 -11 q 58 425 0 295 q 244 626 125 577 q 123 694 181 661 q 76 752 76 724 q 97 800 76 779 q 149 821 118 821 q 205 763 167 821 q 281 658 243 705 q 513 886 329 703 q 650 1009 640 1009 q 688 990 673 1009 q 703 944 703 970 q 579 836 703 934 q 331 642 455 738 q 582 469 492 642 q 656 156 656 323 q 594 -11 656 -11 q 550 5 566 -11 q 534 40 534 21 q 564 225 564 148 q 510 459 564 348 q 332 592 441 592 q 159 478 223 592 q 95 222 95 364 q 121 40 95 135 q 106 4 121 19 q 70 -11 91 -11 z "},"ఘ":{"ha":1241,"x_min":0,"x_max":1127,"o":"m 302 207 q 268 296 302 258 q 187 334 234 334 q 105 296 141 334 q 70 208 70 258 q 105 124 70 158 q 186 90 139 90 q 268 123 234 90 q 302 207 302 156 m 461 589 q 522 643 461 643 q 684 537 624 643 q 744 280 744 431 l 744 257 q 740 223 744 246 q 868 95 763 95 q 1013 162 953 95 q 1072 318 1072 229 q 1026 475 1072 408 q 902 541 979 541 l 853 541 q 800 589 800 541 q 805 622 800 614 q 879 643 819 643 q 1065 545 999 643 q 1127 283 1127 450 q 1067 93 1127 181 q 886 -11 1000 -11 q 717 121 772 -11 q 524 -11 656 -11 q 436 21 480 -11 q 364 111 392 53 q 290 21 336 53 q 178 -11 244 -11 q 55 47 111 -11 q 0 185 0 104 q 52 323 0 265 q 179 380 104 380 q 332 316 281 380 q 380 192 357 280 q 428 123 392 149 q 531 97 464 97 q 643 153 598 97 q 687 308 687 209 q 645 474 687 406 q 532 541 603 541 q 461 589 461 541 m 626 932 q 382 730 626 918 q 207 585 243 621 q 37 687 123 635 q 2 739 2 712 q 22 787 2 767 q 70 807 42 807 q 137 738 90 807 q 204 642 179 673 q 438 874 250 687 q 575 993 563 993 q 613 974 600 993 q 626 932 626 955 m 425 -83 q 367 -151 425 -151 q 325 -134 345 -151 q 306 -85 306 -118 q 334 -4 306 -53 q 367 55 362 44 q 397 -3 369 46 q 425 -83 425 -51 z "},"ఙ":{"ha":874,"x_min":0,"x_max":756,"o":"m 527 480 q 489 618 489 587 q 504 666 489 649 q 541 684 519 684 q 598 624 598 684 q 585 563 598 605 q 559 480 571 520 l 700 480 q 726 454 726 480 q 700 427 726 427 l 362 427 q 257 331 343 357 q 139 304 200 316 q 79 197 79 276 q 115 126 79 153 q 202 98 151 98 q 325 148 283 98 q 390 250 357 199 q 412 221 401 250 q 438 171 424 192 q 488 123 452 149 q 574 97 524 97 q 662 130 624 97 q 700 211 700 164 q 673 292 700 258 q 663 311 663 308 q 680 329 663 329 q 731 282 707 329 q 756 185 756 236 q 702 46 756 102 q 578 -11 649 -11 q 456 32 508 -11 q 383 156 404 74 q 195 -11 350 -11 q 57 43 114 -11 q 0 179 0 97 q 67 327 0 285 q 206 373 95 348 q 288 402 258 382 q 318 469 318 422 q 288 547 318 517 q 209 577 258 577 q 102 468 134 577 q 49 417 86 417 q 15 432 28 417 q 2 473 2 448 q 57 592 2 547 q 188 638 113 638 q 315 593 264 638 q 371 480 366 549 l 527 480 z "},"చ":{"ha":898,"x_min":0,"x_max":786,"o":"m 417 104 q 246 -11 360 -11 q 127 42 176 -11 q 77 172 77 95 q 197 346 77 292 l 70 343 q 18 351 35 343 q 0 389 0 359 q 14 434 0 420 q 49 448 28 448 q 100 440 70 448 q 225 403 153 422 q 278 360 278 387 q 257 343 278 350 q 209 315 216 322 q 167 263 186 297 q 148 204 148 229 q 179 122 148 153 q 276 91 211 91 q 373 135 341 91 q 422 229 397 185 q 446 204 438 229 q 457 165 454 179 q 498 119 468 141 q 561 97 527 97 q 676 149 631 97 q 721 292 721 202 q 648 508 721 424 q 461 592 575 592 l 385 592 q 243 679 371 603 q 179 745 179 716 q 200 796 179 774 q 250 818 220 818 q 311 752 265 818 q 383 650 357 686 q 588 857 455 719 q 730 997 721 995 q 770 981 754 1006 q 786 932 786 956 q 671 827 786 919 q 440 642 556 735 q 703 517 622 642 q 774 244 774 413 q 720 66 774 142 q 557 -11 666 -11 q 474 19 512 -11 q 417 104 436 49 z "},"ఛ":{"ha":898,"x_min":0,"x_max":786,"o":"m 417 104 q 246 -11 360 -11 q 127 42 176 -11 q 77 172 77 95 q 197 346 77 292 l 70 343 q 18 351 35 343 q 0 389 0 359 q 14 434 0 420 q 49 448 28 448 q 100 440 70 448 q 225 403 153 422 q 278 360 278 387 q 257 343 278 350 q 209 315 216 322 q 167 263 186 297 q 148 204 148 229 q 179 122 148 153 q 276 91 211 91 q 373 135 341 91 q 422 229 397 185 q 446 204 438 229 q 457 165 454 179 q 498 119 468 141 q 561 97 527 97 q 676 149 631 97 q 721 292 721 202 q 648 508 721 424 q 461 592 575 592 l 385 592 q 243 679 371 603 q 179 745 179 716 q 200 796 179 774 q 250 818 220 818 q 311 752 265 818 q 383 650 357 686 q 588 857 455 719 q 730 997 721 995 q 770 981 754 1006 q 786 932 786 956 q 671 827 786 919 q 440 642 556 735 q 703 517 622 642 q 774 244 774 413 q 720 66 774 142 q 557 -11 666 -11 q 474 19 512 -11 q 417 104 436 49 m 475 -83 q 417 -151 475 -151 q 373 -134 392 -151 q 353 -85 353 -118 q 382 -4 353 -53 q 417 55 411 44 q 447 -3 418 46 q 475 -83 475 -51 z "},"జ":{"ha":872,"x_min":0,"x_max":758,"o":"m 389 155 q 195 -11 348 -11 q 56 44 113 -11 q 0 188 0 98 q 84 339 0 295 q 237 378 192 366 q 323 468 323 401 q 294 547 323 517 q 216 577 264 577 q 116 499 137 577 q 51 422 95 422 q 7 476 7 422 q 63 594 7 550 q 201 638 120 638 q 336 580 283 638 q 401 466 352 559 q 455 411 415 436 q 541 387 496 387 q 689 496 689 387 q 638 571 689 557 q 587 577 612 577 q 549 582 563 577 q 534 606 534 587 q 550 633 534 624 q 587 642 566 642 q 699 591 658 642 q 740 464 740 540 q 689 342 740 389 q 566 295 638 295 q 374 445 411 295 q 337 369 362 392 q 261 334 311 346 q 148 308 211 322 q 81 200 81 281 q 118 126 81 153 q 206 98 155 98 q 329 148 285 98 q 394 248 360 199 q 413 222 406 248 q 485 123 429 164 q 578 97 524 97 q 667 128 631 97 q 703 218 703 160 l 700 262 q 717 283 700 283 q 748 250 738 283 q 758 176 758 216 q 704 40 758 95 q 580 -14 650 -14 q 458 28 510 -14 q 389 155 406 70 z "},"ఝ":{"ha":1530,"x_min":0,"x_max":1417,"o":"m 324 104 q 378 104 324 104 q 501 166 431 104 q 571 338 571 229 q 502 516 571 448 q 326 584 432 584 q 147 521 220 584 q 74 344 74 459 q 146 166 74 229 q 324 104 218 104 m 642 244 q 677 135 642 176 q 767 95 712 95 q 914 162 854 95 q 974 318 974 229 q 927 475 974 408 q 802 541 881 541 l 754 541 q 701 589 701 541 q 707 622 701 614 q 779 643 721 643 q 967 545 898 643 q 1028 295 1028 450 l 1030 285 q 1062 146 1030 197 q 1166 95 1094 95 q 1301 163 1239 95 q 1363 319 1363 230 q 1314 475 1363 408 q 1187 541 1266 541 l 1141 541 q 1090 589 1090 541 q 1095 622 1090 614 q 1169 643 1109 643 q 1355 543 1294 643 q 1417 283 1417 443 q 1355 93 1417 181 q 1176 -11 1289 -11 q 1065 32 1111 -11 q 999 148 1018 74 q 912 37 962 72 q 789 -11 856 -11 q 674 33 721 -11 q 610 148 628 76 q 490 31 564 72 q 332 -11 415 -11 q 94 85 188 -11 q 0 325 0 181 q 62 521 0 438 q 239 631 125 605 q 137 695 183 666 q 91 751 91 724 q 113 798 91 777 q 162 819 134 819 q 225 749 179 819 q 297 656 253 710 q 498 858 364 721 q 645 999 631 995 q 682 985 666 1007 q 698 935 698 962 q 583 828 698 921 q 350 640 468 735 q 566 539 485 628 q 647 304 647 450 l 642 244 m 1051 -83 q 995 -151 1051 -151 q 951 -134 970 -151 q 932 -85 932 -118 q 961 -4 932 -53 q 995 55 990 44 q 1032 -14 997 46 q 1051 -83 1051 -51 z "},"ఞ":{"ha":1145,"x_min":0,"x_max":1043,"o":"m 842 441 q 800 592 800 568 q 860 643 800 643 q 896 628 884 643 q 907 594 907 612 q 892 517 907 577 q 876 441 877 457 l 1021 441 q 1043 414 1043 441 q 1028 387 1043 387 l 684 387 q 679 281 684 323 q 656 197 673 239 l 701 137 q 756 -21 756 46 q 746 -67 756 -51 q 710 -83 737 -83 q 675 -70 684 -83 q 666 -12 666 -58 l 666 25 q 650 111 666 84 l 629 148 q 497 33 582 72 q 306 -7 411 -7 q 120 39 200 -7 q 33 176 33 84 q 320 336 33 336 q 614 236 483 336 q 636 362 636 285 q 595 500 636 440 q 498 561 554 561 q 411 542 441 561 q 362 497 380 524 q 345 443 345 469 q 329 417 345 417 q 299 445 299 417 q 259 527 299 491 q 172 564 220 564 q 91 538 125 564 q 56 476 56 512 q 70 420 56 441 q 84 389 84 399 q 63 380 84 380 q 21 418 42 380 q 0 496 0 457 q 40 600 0 559 q 151 642 81 642 q 322 498 290 642 q 374 594 357 573 q 491 638 417 638 q 616 584 566 638 q 677 441 666 529 l 842 441 m 580 197 q 447 260 524 243 q 283 278 371 278 q 144 256 195 278 q 93 199 93 234 q 167 116 93 144 q 294 98 218 98 q 449 125 369 98 q 580 197 529 151 z "},"ట":{"ha":953,"x_min":0,"x_max":835,"o":"m 171 791 q 224 854 171 854 q 278 798 278 854 q 258 718 278 768 q 232 642 239 668 q 334 603 297 642 q 371 500 371 564 q 330 392 371 436 q 236 348 288 348 q 142 377 183 348 q 91 478 102 406 q 69 322 69 401 q 109 179 69 243 q 258 98 164 98 q 345 126 309 98 q 390 188 380 153 l 406 241 q 424 258 411 258 q 446 234 440 258 q 457 183 452 209 q 575 97 491 97 q 720 164 659 97 q 781 323 781 230 q 732 478 781 415 q 608 541 684 541 q 556 540 577 540 q 519 549 534 540 q 503 592 503 557 q 527 635 503 626 q 594 643 550 643 q 767 553 700 643 q 835 322 835 462 q 767 85 835 181 q 587 -11 700 -11 q 497 17 533 -11 q 424 105 461 44 q 345 17 387 44 q 243 -11 302 -11 q 66 93 132 -11 q 0 325 0 197 q 55 543 0 454 q 206 643 109 633 q 187 716 204 656 q 171 791 171 777 m 302 499 q 280 559 302 534 q 222 584 257 584 q 164 560 188 584 q 141 501 141 536 q 164 440 141 466 q 222 415 188 415 q 280 440 257 415 q 302 499 302 464 z "},"ఠ":{"ha":761,"x_min":0,"x_max":673,"o":"m 322 415 q 364 396 346 415 q 382 351 382 378 q 364 305 382 323 q 322 287 346 287 q 280 304 297 287 q 262 349 262 322 q 280 396 262 376 q 322 415 297 415 m 324 104 q 378 104 324 104 q 501 166 431 104 q 571 338 571 229 q 502 516 571 448 q 326 584 432 584 q 147 521 220 584 q 74 344 74 459 q 146 166 74 229 q 324 104 218 104 m 225 628 q 109 694 164 665 q 69 750 69 723 q 89 798 69 777 q 135 819 109 819 q 202 749 153 819 q 271 656 227 710 q 492 879 341 721 q 622 999 608 995 q 658 985 642 1007 q 673 935 673 962 q 559 829 673 921 q 327 642 445 737 q 557 549 468 642 q 647 314 647 457 q 554 80 647 171 q 324 -11 461 -11 q 94 85 188 -11 q 0 325 0 181 q 57 514 0 434 q 225 628 114 594 z "},"డ":{"ha":821,"x_min":0,"x_max":721,"o":"m 364 156 q 199 -11 318 -11 q 53 70 105 -11 q 0 274 0 151 q 62 491 0 397 q 244 626 125 584 q 132 687 185 656 q 91 740 91 714 q 114 789 91 767 q 167 810 137 810 q 200 782 179 810 q 301 645 246 717 q 584 921 323 668 q 668 995 659 995 q 705 976 689 995 q 721 934 721 956 q 603 829 721 921 q 362 642 485 737 q 548 607 468 642 q 628 520 628 571 q 589 487 628 487 q 493 559 543 526 q 362 592 443 592 q 169 519 246 592 q 76 292 76 438 q 111 154 76 209 q 216 98 146 98 q 327 180 302 98 q 362 262 352 262 q 402 179 369 262 q 527 97 434 97 q 618 123 582 97 q 654 197 654 149 q 587 265 654 265 q 552 298 552 265 q 587 331 552 331 q 680 288 640 331 q 719 168 719 246 q 672 38 719 90 q 551 -14 624 -14 q 427 27 478 -14 q 364 156 376 69 z "},"ఢ":{"ha":821,"x_min":0,"x_max":721,"o":"m 364 156 q 199 -11 318 -11 q 53 70 105 -11 q 0 274 0 151 q 62 491 0 397 q 244 626 125 584 q 132 687 185 656 q 91 740 91 714 q 114 789 91 767 q 167 810 137 810 q 200 782 179 810 q 301 645 246 717 q 584 921 323 668 q 668 995 659 995 q 705 976 689 995 q 721 934 721 956 q 603 829 721 921 q 362 642 485 737 q 548 607 468 642 q 628 520 628 571 q 589 487 628 487 q 493 559 543 526 q 362 592 443 592 q 169 519 246 592 q 76 292 76 438 q 111 154 76 209 q 216 98 146 98 q 327 180 302 98 q 362 262 352 262 q 402 179 369 262 q 527 97 434 97 q 618 123 582 97 q 654 197 654 149 q 587 265 654 265 q 552 298 552 265 q 587 331 552 331 q 680 288 640 331 q 719 168 719 246 q 672 38 719 90 q 551 -14 624 -14 q 427 27 478 -14 q 364 156 376 69 m 420 -83 q 362 -151 420 -151 q 320 -134 339 -151 q 301 -85 301 -118 q 329 -4 301 -53 q 362 55 357 44 q 392 -3 364 46 q 420 -83 420 -51 z "},"ణ":{"ha":935,"x_min":0,"x_max":839,"o":"m 0 185 q 90 352 0 304 q 0 483 0 392 q 54 601 0 559 q 204 643 107 643 q 397 494 350 643 q 469 605 415 568 q 592 642 524 642 q 773 542 707 642 q 839 302 839 443 q 772 74 839 162 q 592 -14 705 -14 q 467 40 515 -14 q 418 171 418 95 q 461 297 418 248 q 573 346 505 346 q 679 308 642 346 q 716 204 716 269 q 700 128 716 172 q 762 214 740 156 q 784 332 784 271 q 736 498 784 434 q 596 561 687 561 q 431 464 475 561 q 416 408 420 425 q 394 390 411 390 q 373 427 383 390 q 310 534 353 506 q 214 561 267 561 q 121 533 162 561 q 81 461 81 505 q 106 396 81 418 q 171 373 132 373 q 217 368 209 373 q 225 347 225 364 q 215 327 225 331 q 186 323 206 323 q 104 291 139 323 q 69 208 69 258 q 101 128 69 158 q 183 98 134 98 q 271 147 251 98 q 308 195 290 195 q 348 135 348 195 q 298 33 348 76 q 178 -11 248 -11 q 55 40 109 -11 q 0 185 0 91 m 672 195 q 644 265 672 236 q 578 295 617 295 q 511 265 540 295 q 482 195 482 236 q 509 124 482 155 q 576 93 536 93 q 643 124 615 93 q 672 195 672 155 z "},"త":{"ha":853,"x_min":0,"x_max":744,"o":"m 654 383 q 629 442 654 418 q 572 466 605 466 q 515 442 540 466 q 491 384 491 418 q 515 327 491 350 q 573 304 540 304 q 630 326 607 304 q 654 383 654 348 m 176 308 q 231 332 209 308 q 253 391 253 357 q 231 448 253 425 q 176 471 209 471 q 120 449 142 471 q 98 391 98 427 q 120 331 98 355 q 176 308 142 308 m 346 592 q 202 675 345 594 q 137 740 137 712 q 157 791 137 768 q 209 814 178 814 q 270 748 223 814 q 343 647 316 682 q 563 872 413 714 q 687 993 679 992 q 728 977 712 1002 q 744 928 744 953 q 617 814 744 914 q 401 642 491 714 q 580 608 515 642 q 701 432 673 559 q 737 290 737 355 q 621 73 737 156 q 360 -11 506 -11 q 106 75 213 -11 q 0 304 0 160 q 47 459 0 397 q 185 520 95 520 q 278 491 241 520 q 315 396 315 461 q 275 294 315 332 q 187 257 236 257 q 113 273 139 257 q 62 332 88 290 q 146 144 62 207 q 361 81 230 81 q 579 142 492 81 q 666 304 666 202 q 558 244 612 244 q 462 283 505 244 q 420 378 420 322 q 455 473 420 434 q 554 512 491 512 q 621 501 591 512 q 557 566 582 556 q 417 592 513 592 l 346 592 z "},"థ":{"ha":858,"x_min":0,"x_max":744,"o":"m 374 455 q 388 455 374 455 q 419 437 401 455 q 438 391 438 418 q 419 346 438 364 q 376 329 401 329 q 335 345 352 329 q 318 390 318 362 q 333 437 318 418 q 374 455 348 455 m 673 292 q 598 499 673 420 q 381 589 517 589 q 160 508 244 589 q 76 301 76 427 q 110 156 76 214 q 211 98 144 98 q 318 149 278 98 q 382 253 348 204 q 403 231 396 253 q 417 183 410 209 q 541 97 455 97 q 640 155 607 97 q 673 292 673 213 m 257 629 q 155 691 204 661 q 118 742 118 716 q 140 790 118 768 q 192 812 162 812 q 250 751 209 812 q 323 647 290 689 q 520 838 357 680 q 691 995 684 995 q 730 975 716 995 q 744 934 744 955 q 591 799 744 919 q 389 642 438 679 q 647 538 550 642 q 744 244 744 434 q 690 65 744 141 q 541 -11 636 -11 q 438 33 482 -11 q 378 153 394 76 q 310 28 353 67 q 202 -11 267 -11 q 54 72 107 -11 q 0 255 0 155 q 39 441 0 355 q 164 592 83 545 q 257 629 200 615 m 434 -83 q 376 -151 434 -151 q 338 -137 352 -151 q 315 -85 315 -118 q 343 -4 315 -53 q 376 55 371 44 q 406 -3 378 46 q 434 -83 434 -51 z "},"ద":{"ha":858,"x_min":0,"x_max":744,"o":"m 673 292 q 598 499 673 420 q 381 589 517 589 q 160 508 244 589 q 76 301 76 427 q 110 156 76 214 q 211 98 144 98 q 318 149 278 98 q 382 253 348 204 q 403 231 396 253 q 417 183 410 209 q 541 97 455 97 q 640 155 607 97 q 673 292 673 213 m 257 629 q 155 691 204 661 q 118 742 118 716 q 140 790 118 768 q 192 812 162 812 q 250 751 209 812 q 323 647 290 689 q 520 838 357 680 q 691 995 684 995 q 730 975 716 995 q 744 934 744 955 q 591 799 744 919 q 389 642 438 679 q 647 538 550 642 q 744 244 744 434 q 690 65 744 141 q 541 -11 636 -11 q 438 33 482 -11 q 378 153 394 76 q 310 28 353 67 q 202 -11 267 -11 q 54 72 107 -11 q 0 255 0 155 q 39 441 0 355 q 164 592 83 545 q 257 629 200 615 z "},"ధ":{"ha":861,"x_min":0,"x_max":744,"o":"m 673 292 q 598 499 673 420 q 381 589 517 589 q 160 508 244 589 q 76 301 76 427 q 110 156 76 214 q 211 98 144 98 q 318 149 278 98 q 382 253 348 204 q 403 231 396 253 q 417 183 410 209 q 541 97 455 97 q 640 155 607 97 q 673 292 673 213 m 257 629 q 155 691 204 661 q 118 742 118 716 q 140 790 118 768 q 192 812 162 812 q 250 751 209 812 q 323 647 290 689 q 520 838 357 680 q 691 995 684 995 q 730 975 716 995 q 744 934 744 955 q 591 799 744 919 q 389 642 438 679 q 647 538 550 642 q 744 244 744 434 q 690 65 744 141 q 541 -11 636 -11 q 438 33 482 -11 q 378 153 394 76 q 310 28 353 67 q 202 -11 267 -11 q 54 72 107 -11 q 0 255 0 155 q 39 441 0 355 q 164 592 83 545 q 257 629 200 615 m 436 -83 q 378 -151 436 -151 q 339 -137 353 -151 q 316 -85 316 -118 q 345 -4 316 -53 q 378 55 373 44 q 408 -3 380 46 q 436 -83 436 -51 z "},"న":{"ha":833,"x_min":0,"x_max":717,"o":"m 717 241 q 662 66 717 142 q 524 -11 607 -11 q 309 156 390 -11 q 165 323 229 323 q 98 299 125 323 q 70 222 70 274 q 119 120 70 171 q 167 39 167 69 q 154 9 167 25 q 118 -7 141 -7 q 35 58 70 -7 q 0 197 0 123 q 46 324 0 271 q 172 378 91 378 q 339 237 253 378 q 498 97 425 97 q 612 145 570 97 q 654 287 654 193 q 583 507 654 422 q 374 592 512 592 l 216 592 q 118 642 137 631 q 16 723 16 698 q 35 777 16 752 q 84 802 55 802 q 155 724 109 802 q 221 647 200 647 q 408 818 241 647 q 584 990 575 990 q 621 970 607 990 q 635 925 635 949 q 445 765 635 911 q 297 642 334 677 l 401 642 q 626 545 543 642 q 717 241 717 436 z "},"ప":{"ha":854,"x_min":0,"x_max":744,"o":"m 461 589 q 522 643 461 643 q 684 537 624 643 q 744 293 744 431 q 696 79 744 155 q 524 -11 640 -11 q 436 21 480 -11 q 364 111 392 53 q 290 21 336 53 q 178 -11 244 -11 q 55 47 111 -11 q 0 185 0 104 q 52 323 0 265 q 179 380 104 380 q 332 316 281 380 q 380 192 357 280 q 428 123 392 149 q 531 97 464 97 q 643 153 598 97 q 687 308 687 209 q 645 474 687 406 q 532 541 603 541 q 461 589 461 541 m 302 207 q 268 296 302 258 q 187 334 234 334 q 105 296 141 334 q 70 208 70 258 q 105 124 70 158 q 186 90 139 90 q 268 123 234 90 q 302 207 302 156 m 626 932 q 382 730 626 918 q 207 585 243 621 q 37 687 123 635 q 2 739 2 712 q 22 787 2 767 q 70 807 42 807 q 137 738 90 807 q 204 642 179 673 q 438 874 250 687 q 575 993 563 993 q 613 974 600 993 q 626 932 626 955 z "},"ఫ":{"ha":854,"x_min":0,"x_max":744,"o":"m 461 589 q 522 643 461 643 q 684 537 624 643 q 744 293 744 431 q 696 79 744 155 q 524 -11 640 -11 q 436 21 480 -11 q 364 111 392 53 q 290 21 336 53 q 178 -11 244 -11 q 55 47 111 -11 q 0 185 0 104 q 52 323 0 265 q 179 380 104 380 q 332 316 281 380 q 380 192 357 280 q 428 123 392 149 q 531 97 464 97 q 643 153 598 97 q 687 308 687 209 q 645 474 687 406 q 532 541 603 541 q 461 589 461 541 m 302 207 q 268 296 302 258 q 187 334 234 334 q 105 296 141 334 q 70 208 70 258 q 105 124 70 158 q 186 90 139 90 q 268 123 234 90 q 302 207 302 156 m 626 932 q 382 730 626 918 q 207 585 243 621 q 37 687 123 635 q 2 739 2 712 q 22 787 2 767 q 70 807 42 807 q 137 738 90 807 q 204 642 179 673 q 438 874 250 687 q 575 993 563 993 q 613 974 600 993 q 626 932 626 955 m 422 -83 q 364 -151 422 -151 q 322 -134 341 -151 q 302 -85 302 -118 q 331 -4 302 -53 q 364 55 359 44 q 394 -3 366 46 q 422 -83 422 -51 z "},"బ":{"ha":858,"x_min":0,"x_max":751,"o":"m 374 142 q 188 -11 329 -11 q 55 51 111 -11 q 0 180 0 113 q 34 298 0 248 q 128 362 69 348 q 253 392 188 376 q 327 474 327 415 q 298 558 327 533 q 223 584 269 584 q 144 553 178 584 q 111 473 111 522 q 97 442 111 455 q 61 429 83 429 q 26 447 39 429 q 14 487 14 466 q 69 603 14 564 q 206 642 123 642 q 332 598 288 642 q 376 483 376 554 q 230 328 376 359 q 84 218 84 297 q 195 93 84 93 q 328 176 288 93 q 374 258 367 258 q 414 175 382 258 q 527 91 447 91 q 651 152 608 91 q 694 324 694 213 q 635 494 694 436 q 522 545 589 545 l 498 545 q 437 552 454 545 q 420 592 420 559 q 439 637 420 626 q 505 649 457 649 q 687 548 622 649 q 751 290 751 447 q 689 84 751 179 q 522 -11 628 -11 q 425 28 468 -11 q 374 142 382 67 z "},"భ":{"ha":927,"x_min":0,"x_max":858,"o":"m 62 425 q 12 495 12 425 q 65 603 12 564 q 199 642 118 642 q 327 598 280 642 q 374 480 374 554 q 269 341 374 369 q 160 315 216 327 q 84 222 84 292 q 115 132 84 165 q 195 98 146 98 q 309 151 269 98 q 374 258 343 206 q 396 234 389 258 q 416 178 404 209 q 454 122 427 148 q 522 97 480 97 q 643 158 601 97 q 686 343 686 220 q 630 529 686 466 q 473 592 575 592 l 455 585 q 315 675 424 612 q 250 740 250 712 q 270 791 250 768 q 322 814 290 814 q 383 746 338 814 q 455 645 429 679 q 651 845 512 701 q 802 992 791 988 q 840 974 823 997 q 858 928 858 951 q 715 800 858 914 q 517 640 571 686 q 744 292 744 610 q 698 86 744 167 q 517 -11 640 -11 q 426 28 469 -11 q 373 141 383 67 q 185 -11 331 -11 q 53 46 105 -11 q 0 188 0 102 q 35 295 0 248 q 176 369 79 353 q 216 376 207 374 q 294 409 267 385 q 322 482 322 432 q 294 557 322 531 q 215 584 265 584 q 136 549 165 584 q 107 473 107 513 q 62 425 107 425 m 425 -83 q 367 -151 425 -151 q 325 -134 345 -151 q 306 -85 306 -118 q 334 -4 306 -53 q 367 55 362 44 q 397 -3 369 46 q 425 -83 425 -51 z "},"మ":{"ha":1241,"x_min":0,"x_max":1130,"o":"m 183 88 q 207 88 183 88 q 266 123 230 88 q 302 208 302 158 q 266 296 302 258 q 183 334 230 334 q 101 296 135 334 q 67 208 67 258 q 101 123 67 158 q 183 88 135 88 m 721 120 q 547 -11 659 -11 q 353 127 434 -11 q 289 25 334 60 q 171 -11 244 -11 q 48 47 97 -11 q 0 189 0 105 q 49 326 0 273 q 185 380 98 380 q 276 355 239 380 q 329 294 315 332 q 392 165 359 229 q 519 97 440 97 q 641 148 598 97 q 684 301 684 199 q 600 515 684 438 q 396 592 517 592 l 232 592 q 105 661 146 638 q 33 735 33 705 q 113 800 33 800 q 158 758 130 800 q 237 640 209 675 q 515 916 264 665 q 605 992 592 992 q 643 974 626 992 q 659 928 659 956 q 461 765 659 911 q 315 642 355 686 l 424 642 q 658 541 571 642 q 745 257 745 441 l 744 216 q 870 95 765 95 q 1014 162 955 95 q 1074 318 1074 229 q 1028 475 1074 408 q 904 541 983 541 l 854 541 q 802 589 802 541 q 807 622 802 614 q 881 643 821 643 q 1067 545 1000 643 q 1130 283 1130 447 q 1069 93 1130 181 q 888 -11 1002 -11 q 721 120 774 -11 z "},"య":{"ha":1528,"x_min":0,"x_max":1422,"o":"m 316 98 q 365 98 316 98 q 486 171 415 98 q 557 345 557 243 q 486 526 557 448 q 316 603 415 603 q 146 528 216 603 q 76 348 76 454 q 146 171 76 243 q 316 98 216 98 m 1006 148 q 786 -11 925 -11 q 665 38 719 -11 q 598 172 612 86 q 484 40 561 91 q 318 -11 408 -11 q 91 84 183 -11 q 0 317 0 179 q 91 549 0 455 q 309 643 183 643 q 557 526 469 643 q 628 327 628 427 q 671 162 628 227 q 796 97 714 97 q 933 149 879 97 q 986 292 986 202 q 911 526 986 457 q 724 592 849 592 l 649 592 q 506 679 633 603 q 443 745 443 716 q 463 796 443 774 q 513 818 483 818 q 576 752 529 818 q 647 650 622 686 q 852 857 719 719 q 993 997 985 995 q 1033 981 1018 1006 q 1048 932 1048 956 q 934 827 1048 919 q 703 642 819 735 q 967 550 890 642 q 1039 301 1039 469 l 1032 241 q 1072 135 1039 176 q 1162 95 1106 95 q 1307 162 1246 95 q 1368 318 1368 229 q 1321 475 1368 408 q 1195 541 1275 541 l 1146 541 q 1094 589 1094 541 q 1101 622 1094 612 q 1174 643 1113 643 q 1361 545 1292 643 q 1422 283 1422 443 q 1363 93 1422 181 q 1180 -11 1294 -11 q 1006 148 1050 -11 z "},"ర":{"ha":765,"x_min":0,"x_max":673,"o":"m 324 104 q 378 104 324 104 q 501 166 431 104 q 571 338 571 229 q 502 516 571 448 q 326 584 432 584 q 147 521 220 584 q 74 344 74 459 q 146 166 74 229 q 324 104 218 104 m 225 628 q 109 694 164 665 q 69 750 69 723 q 89 798 69 777 q 135 819 109 819 q 202 749 153 819 q 271 656 227 710 q 492 879 341 721 q 622 999 608 995 q 658 985 642 1007 q 673 935 673 962 q 559 829 673 921 q 327 642 445 737 q 557 549 468 642 q 647 314 647 457 q 554 80 647 171 q 324 -11 461 -11 q 94 85 188 -11 q 0 325 0 181 q 57 514 0 434 q 225 628 114 594 z "},"ఱ":{"ha":948,"x_min":0,"x_max":833,"o":"m 223 348 q 90 469 109 348 q 67 339 67 397 q 117 170 67 241 q 250 98 167 98 q 396 206 376 98 l 447 206 q 488 121 454 146 q 580 97 522 97 q 717 166 659 97 q 775 324 775 236 q 747 478 775 413 q 638 557 709 557 q 563 522 592 557 q 534 445 534 487 q 554 376 534 403 q 642 304 578 339 q 659 272 659 290 q 647 244 659 253 q 624 236 635 236 l 269 236 q 236 262 236 236 q 264 292 236 292 l 582 292 q 499 369 526 331 q 469 485 469 420 q 510 597 469 550 q 624 643 550 643 q 776 551 719 643 q 833 323 833 459 q 767 88 833 186 q 585 -11 701 -11 q 420 105 487 -11 q 243 -9 355 -9 q 66 92 132 -9 q 0 323 0 193 q 59 549 0 454 q 223 643 118 643 q 331 600 295 643 q 366 496 366 557 q 323 391 366 434 q 223 348 281 348 m 214 418 q 229 418 214 418 q 269 441 244 418 q 294 497 294 464 q 268 553 294 529 q 213 577 243 577 q 160 554 183 577 q 137 498 137 531 q 160 441 137 464 q 214 418 183 418 z "},"ల":{"ha":854,"x_min":0,"x_max":744,"o":"m 694 348 q 652 484 694 431 q 549 538 610 538 q 489 592 489 538 q 543 643 489 643 q 687 550 629 643 q 744 323 744 457 q 646 90 744 190 q 377 -11 549 -11 q 103 86 206 -11 q 0 338 0 183 q 51 538 0 457 q 227 642 111 642 q 329 601 287 642 q 371 491 371 561 q 329 382 371 422 q 229 343 287 343 q 134 380 171 343 q 97 489 97 417 q 67 432 72 461 q 62 366 62 404 q 143 171 62 244 q 360 97 225 97 q 589 156 496 97 q 694 348 694 227 m 228 399 q 245 399 228 399 q 287 426 262 399 q 311 489 311 454 q 287 550 311 524 q 229 577 264 577 q 166 550 193 577 q 139 490 139 524 q 166 427 139 455 q 228 399 193 399 z "},"ళ":{"ha":805,"x_min":0,"x_max":756,"o":"m 311 70 q 338 70 311 70 q 411 91 364 70 q 457 161 457 113 q 414 235 457 209 q 313 260 371 260 q 214 236 255 260 q 172 164 172 211 q 215 94 172 118 q 311 70 258 70 m 244 524 q 222 580 244 557 q 167 603 200 603 q 109 580 134 603 q 84 524 84 557 q 109 466 84 491 q 167 441 134 441 q 222 466 200 441 q 244 524 244 491 m 756 928 q 448 642 756 907 l 473 642 q 628 480 628 642 q 572 352 628 406 q 427 276 517 299 q 511 224 487 258 q 534 141 534 190 q 467 27 534 65 q 309 -11 399 -11 q 155 28 218 -11 q 91 141 91 67 q 200 276 91 244 q 55 350 104 302 q 0 481 0 408 q 47 599 0 554 q 159 643 93 643 q 265 615 225 643 q 306 525 306 587 q 268 428 306 462 q 170 394 230 394 q 65 457 109 394 q 149 350 79 385 q 290 315 220 315 q 483 348 404 315 q 584 483 584 394 q 557 559 584 526 q 487 592 531 592 l 394 592 q 248 675 392 594 q 186 741 186 712 q 207 792 186 770 q 258 814 227 814 q 319 745 273 814 q 389 647 366 675 q 583 860 475 728 q 701 993 691 992 q 738 978 721 1002 q 756 928 756 955 z "},"ఴ":{"ha":927,"x_min":0,"x_max":830,"o":"m 534 497 q 534 480 534 497 q 560 441 534 464 q 616 418 585 418 q 670 441 647 418 q 693 498 693 464 q 670 554 693 531 q 617 577 647 577 q 561 553 587 577 q 534 497 534 529 m 214 418 q 229 418 214 418 q 269 441 244 418 q 294 497 294 464 q 268 553 294 529 q 213 577 243 577 q 160 554 183 577 q 137 498 137 531 q 160 441 137 464 q 214 418 183 418 m 223 348 q 90 469 109 348 q 67 339 67 397 q 117 170 67 241 q 256 98 167 98 q 380 160 345 98 q 383 206 380 186 l 447 206 q 450 160 450 186 q 575 98 487 98 q 714 170 663 98 q 765 339 765 241 q 740 469 765 397 q 607 348 721 348 q 506 391 549 348 q 464 496 464 434 q 499 600 464 557 q 607 643 534 643 q 771 549 712 643 q 830 323 830 454 q 764 92 830 193 q 591 -9 698 -9 q 415 97 483 -9 q 239 -9 346 -9 q 66 92 132 -9 q 0 323 0 193 q 59 549 0 454 q 223 643 118 643 q 331 600 295 643 q 366 496 366 557 q 323 391 366 434 q 223 348 281 348 z "},"వ":{"ha":854,"x_min":0,"x_max":745,"o":"m 745 257 q 690 67 745 144 q 541 -11 635 -11 q 353 127 434 -11 q 289 25 334 60 q 171 -11 244 -11 q 48 47 97 -11 q 0 189 0 105 q 49 326 0 273 q 185 380 98 380 q 271 360 239 380 q 329 294 302 339 q 392 165 359 229 q 519 97 440 97 q 641 148 598 97 q 684 301 684 199 q 600 515 684 438 q 396 592 517 592 l 232 592 q 105 661 146 638 q 33 735 33 705 q 113 800 33 800 q 158 758 130 800 q 237 640 209 675 q 515 916 264 665 q 605 992 592 992 q 643 974 626 992 q 659 928 659 956 q 461 765 659 911 q 315 642 355 686 l 424 642 q 658 541 571 642 q 745 257 745 441 m 183 88 q 207 88 183 88 q 266 123 230 88 q 302 208 302 158 q 266 296 302 258 q 183 334 230 334 q 101 296 135 334 q 67 208 67 258 q 101 123 67 158 q 183 88 135 88 z "},"శ":{"ha":874,"x_min":0,"x_max":777,"o":"m 425 88 q 460 88 425 88 q 544 121 494 88 q 594 218 594 155 q 487 390 594 332 l 438 369 q 318 316 338 329 q 258 216 258 278 q 308 121 258 155 q 425 88 357 88 m 0 311 q 269 483 0 483 q 487 441 380 483 q 561 538 561 487 q 544 572 561 563 q 482 592 527 582 l 371 592 l 230 677 q 171 744 171 714 q 191 795 171 774 q 243 816 211 816 q 303 747 257 816 q 373 649 350 679 q 571 848 431 703 q 724 995 712 993 q 760 980 744 1004 q 777 930 777 956 q 650 814 777 914 q 432 642 524 714 l 508 642 q 589 610 561 642 q 617 534 617 578 q 538 418 617 462 q 663 211 663 343 q 593 52 663 114 q 423 -11 524 -11 q 250 50 322 -11 q 178 207 178 111 q 204 295 178 255 q 348 385 241 352 q 431 418 410 404 q 313 432 383 432 q 109 366 151 432 q 93 295 93 338 q 39 239 93 239 q 8 258 16 239 q 0 311 0 276 z "},"ష":{"ha":870,"x_min":0,"x_max":868,"o":"m 737 267 l 721 107 q 781 -33 721 7 q 840 -62 826 -55 q 868 -102 868 -74 q 854 -145 868 -130 q 812 -160 839 -160 q 722 -97 763 -160 q 680 42 680 -33 l 680 70 q 524 -11 619 -11 q 429 22 475 -11 q 355 116 383 55 q 185 -11 306 -11 q 52 47 104 -11 q 0 186 0 104 q 52 326 0 269 q 190 383 104 383 q 288 354 246 383 q 348 269 331 325 l 380 179 q 506 97 422 97 q 639 158 591 97 q 687 310 687 220 q 631 471 687 401 q 494 541 575 541 q 445 585 445 541 q 499 642 445 642 q 671 533 605 642 q 737 267 737 424 m 181 98 q 204 98 181 98 q 260 133 227 98 q 294 215 294 167 q 260 299 294 264 q 181 334 227 334 q 104 299 135 334 q 72 215 72 264 q 104 133 72 167 q 181 98 135 98 m 624 932 q 380 730 624 918 q 206 584 241 621 q 35 687 120 635 q 0 739 0 712 q 20 787 0 767 q 70 807 40 807 q 133 740 88 807 q 202 642 178 673 q 436 874 248 687 q 573 993 559 993 q 611 974 598 993 q 624 932 624 955 z "},"స":{"ha":825,"x_min":0,"x_max":716,"o":"m 0 176 q 186 380 0 380 q 348 238 269 380 q 502 97 427 97 q 620 159 577 97 q 663 316 663 222 q 613 476 663 410 q 494 541 563 541 q 446 551 464 541 q 427 592 427 561 q 487 643 427 643 q 650 541 584 643 q 716 274 716 438 q 665 79 716 160 q 508 -11 610 -11 q 328 156 406 -11 q 176 322 250 322 q 103 290 132 322 q 74 214 74 258 q 132 97 74 169 q 162 37 162 62 q 104 -11 162 -11 q 32 55 63 -11 q 0 176 0 120 m 626 932 q 382 730 626 918 q 207 585 243 621 q 37 687 123 635 q 2 739 2 712 q 22 787 2 767 q 70 807 42 807 q 137 738 90 807 q 204 642 179 673 q 438 874 250 687 q 575 993 563 993 q 613 974 600 993 q 626 932 626 955 z "},"హ":{"ha":1303,"x_min":0,"x_max":1195,"o":"m 1024 396 q 1047 396 1024 396 q 1105 425 1069 396 q 1141 500 1141 455 q 1106 574 1141 545 q 1022 603 1071 603 q 942 576 974 603 q 911 501 911 549 q 945 425 911 454 q 1024 396 979 396 m 182 90 q 205 90 182 90 q 265 123 229 90 q 301 207 301 156 q 265 295 301 257 q 183 334 230 334 q 101 296 135 334 q 67 209 67 258 q 101 125 67 160 q 182 90 135 90 m 353 128 q 174 -11 302 -11 q 48 50 97 -11 q 0 190 0 111 q 50 322 0 269 q 175 374 100 374 q 294 341 250 374 q 373 192 338 311 q 436 123 394 149 q 546 97 478 97 q 664 153 614 97 q 714 309 714 209 q 656 484 714 408 q 494 592 598 561 q 450 638 450 592 q 494 684 450 684 l 1020 684 q 1141 631 1086 684 q 1195 495 1195 578 q 1147 358 1195 411 q 1028 304 1099 304 q 905 355 956 304 q 854 474 854 406 q 897 592 854 541 l 622 592 q 763 253 763 480 q 701 64 763 139 q 545 -11 640 -11 q 353 128 429 -11 m 626 932 q 435 769 626 918 q 209 585 244 621 q 39 687 125 635 q 4 739 4 712 q 24 787 4 767 q 72 807 44 807 q 139 738 91 807 q 206 642 181 673 q 440 874 251 687 q 577 993 564 993 q 614 974 601 993 q 626 932 626 955 z "},"ఽ":{"ha":1004,"x_min":9,"x_max":911,"o":"m 69 60 q 10 180 11 109 q 64 301 9 251 q 201 350 120 350 q 341 382 283 350 q 401 469 401 422 q 371 545 401 515 q 339 578 360 559 q 299 455 345 496 q 185 406 255 406 q 69 446 114 406 q 25 542 25 485 q 80 649 25 600 q 234 698 135 698 q 415 628 332 698 q 485 466 485 563 q 403 335 485 389 q 197 276 320 281 q 131 251 158 276 q 103 188 104 227 q 141 130 102 149 q 222 107 171 111 l 847 107 q 894 89 877 107 q 911 54 911 70 q 897 23 911 37 q 854 0 884 7 l 213 0 q 69 60 123 0 m 246 496 q 269 557 269 520 q 245 619 269 594 q 192 643 222 643 q 142 621 162 643 q 116 557 116 594 q 139 496 116 520 q 194 471 167 471 q 246 496 222 471 z "},"ా":{"ha":923,"x_min":-366,"x_max":810,"o":"m -309 596 q -366 636 -366 596 q -353 677 -366 663 q -323 691 -341 691 l 629 691 q 756 638 701 691 q 810 501 810 585 q 761 362 810 417 q 641 308 712 308 q 520 360 570 308 q 469 480 469 411 q 510 596 469 549 l -309 596 m 636 399 q 659 399 636 399 q 719 430 682 399 q 756 505 756 461 q 721 579 756 550 q 637 608 686 608 q 557 579 589 608 q 526 504 526 550 q 558 428 526 457 q 636 399 591 399 z "},"ి":{"ha":0,"x_min":-206,"x_max":202,"o":"m -25 1058 q 145 999 88 1058 q 202 847 202 939 q 142 693 202 754 q -4 631 83 631 q -147 657 -90 631 q -204 712 -204 682 q -171 751 -204 751 q -101 709 -135 730 q -30 687 -67 687 q 98 729 55 687 q 142 842 142 770 q 124 926 142 888 q 65 974 105 963 q 79 902 79 935 q 37 809 79 844 q -68 774 -5 774 q -168 810 -130 774 q -206 914 -206 847 q -154 1020 -206 981 q -25 1058 -102 1058 m -56 826 q -40 826 -56 826 q 3 852 -23 826 q 28 907 28 877 q 12 986 28 955 q -25 992 -16 992 q -103 964 -76 992 q -130 902 -130 937 q -110 847 -130 867 q -56 826 -90 826 z "},"ీ":{"ha":0,"x_min":-207,"x_max":199,"o":"m -207 886 q -32 1043 -207 1043 q -72 1094 -63 1085 q -98 1189 -98 1136 q -59 1284 -98 1243 q 47 1326 -19 1326 q 151 1289 114 1326 q 188 1201 188 1252 q 144 1150 188 1150 q 111 1169 120 1150 q 98 1211 102 1197 q 41 1248 81 1248 q -17 1228 2 1248 q -35 1170 -35 1208 q -24 1113 -35 1132 q 32 1034 -12 1094 q 159 961 120 1018 q 199 822 199 904 q 140 678 199 740 q -19 615 81 615 q -149 640 -93 615 q -204 694 -204 665 q -169 735 -204 735 q -120 702 -162 735 q -28 670 -77 670 q 98 713 55 670 q 141 815 141 756 q 125 909 141 874 q 69 956 109 944 q 77 884 77 918 q 35 792 77 826 q -69 758 -7 758 q -170 794 -132 758 q -207 886 -207 830 m -55 810 q -39 810 -55 810 q 2 834 -23 810 q 26 890 26 858 q 11 970 26 935 q -25 974 -14 974 q -104 946 -74 974 q -134 884 -134 918 q -111 831 -134 851 q -55 810 -88 810 z "},"ు":{"ha":468,"x_min":-72,"x_max":357,"o":"m 295 529 q 357 257 357 431 q 297 77 357 167 q 114 -26 229 -26 q -21 41 28 -26 q -70 197 -70 109 l -72 292 q -55 302 -69 302 q -33 269 -33 302 q -1 131 -33 183 q 106 79 32 79 q 242 146 181 79 q 302 302 302 213 q 256 459 302 392 q 132 526 209 526 l 81 526 q 28 573 28 526 q 35 607 28 596 q 109 628 47 628 q 295 529 227 628 z "},"ూ":{"ha":912,"x_min":-137,"x_max":803,"o":"m 617 645 q 748 597 693 645 q 803 462 803 549 q 756 321 803 376 q 636 265 709 265 q 513 317 564 265 q 462 435 462 369 q 501 557 462 501 l 292 557 q 362 309 362 455 q 306 75 362 164 q 130 -14 250 -14 q -63 116 11 -14 q -137 334 -105 195 q -114 352 -134 352 q -104 348 -107 352 q -12 158 -53 211 q 126 86 44 86 q 258 156 207 86 q 309 317 309 227 q 263 473 309 408 q 144 538 216 538 l 81 538 q 37 585 37 538 q 55 630 37 615 q 120 645 72 645 l 617 645 m 636 364 q 661 364 636 364 q 717 392 687 364 q 747 468 747 420 q 712 541 747 515 q 630 566 677 566 q 552 539 584 566 q 520 466 520 512 q 552 392 520 420 q 636 364 584 364 z "},"ృ":{"ha":494,"x_min":-90,"x_max":420,"o":"m 149 -169 q 126 -123 146 -142 q 81 -105 105 -104 q 39 -130 56 -107 q 23 -180 21 -153 q 47 -222 25 -207 q 95 -236 70 -237 q 135 -214 120 -234 q 149 -169 151 -195 m -25 -239 q 28 -346 -9 -309 q 141 -392 72 -399 q 338 -225 292 -380 q 356 -1 367 -130 q 304 226 345 128 q 178 399 264 323 q 117 437 158 413 q 74 476 76 461 q 111 520 69 517 q 197 475 137 526 q 315 325 265 413 q 404 -23 390 181 q 373 -311 420 -197 q 158 -473 309 -459 q -3 -420 69 -482 q -82 -267 -74 -359 q -47 -113 -90 -176 q 77 -42 -4 -49 q 167 -70 130 -39 q 208 -160 204 -102 q 181 -258 213 -218 q 98 -302 149 -297 q -25 -239 14 -309 z "},"ౄ":{"ha":844,"x_min":-81,"x_max":751,"o":"m 663 424 q 600 448 640 448 q 535 426 561 448 q 510 370 510 404 q 536 313 510 336 q 597 290 563 290 q 660 313 631 290 q 689 369 689 336 q 663 424 689 403 m 158 -169 q 134 -123 155 -142 q 90 -105 114 -104 q 47 -130 65 -107 q 32 -180 30 -153 q 56 -222 33 -207 q 104 -236 79 -237 q 144 -214 128 -234 q 158 -169 160 -195 m 135 519 q 148 520 141 520 l 591 520 q 704 478 658 520 q 751 370 751 436 q 707 257 751 304 q 604 209 663 209 q 494 253 545 209 q 452 348 452 295 q 476 440 452 390 l 255 440 l 237 445 q 323 325 288 385 q 413 -23 399 181 q 382 -311 429 -197 q 167 -473 318 -459 q 6 -420 77 -482 q -73 -267 -65 -359 q -38 -113 -81 -176 q 86 -42 5 -49 q 176 -70 139 -39 q 217 -160 213 -102 q 190 -258 222 -218 q 105 -302 158 -297 q -16 -239 23 -309 q 37 -346 0 -309 q 149 -392 81 -399 q 346 -225 301 -380 q 365 -1 376 -130 q 313 226 353 128 q 186 399 273 323 q 126 437 167 413 q 83 476 84 461 q 120 520 77 517 q 135 519 127 524 z "},"ె":{"ha":0,"x_min":-320,"x_max":316,"o":"m 176 907 q 280 858 243 907 q 316 743 316 809 q 270 633 316 677 q 158 589 223 589 l -23 589 q -53 619 -53 589 q -26 649 -53 649 l 160 649 q 222 671 195 649 q 248 730 248 693 q 223 793 248 767 q 165 819 199 819 l -274 819 q -320 860 -320 819 q -310 893 -320 879 q -283 907 -301 907 l 176 907 z "},"ే":{"ha":0,"x_min":-331,"x_max":325,"o":"m 105 909 q 35 1050 35 976 q 73 1166 35 1125 q 176 1206 111 1206 q 283 1163 241 1206 q 325 1076 325 1120 q 281 1032 325 1032 q 243 1058 253 1032 q 225 1116 243 1097 q 176 1136 207 1136 q 122 1111 144 1136 q 100 1047 100 1086 q 123 969 100 1007 q 164 909 153 928 q 265 854 225 902 q 306 743 306 807 q 259 635 306 679 q 148 591 213 591 l -33 591 q -55 600 -46 591 q -63 621 -63 610 q -37 650 -63 650 l 149 650 q 211 672 185 650 q 237 731 237 694 q 213 795 237 768 q 155 821 188 821 l -285 821 q -331 861 -331 821 q -321 895 -331 881 q -294 909 -311 909 l 105 909 z "},"ై":{"ha":951,"x_min":111,"x_max":861,"o":"m 694 907 q 798 858 756 907 q 840 743 840 809 q 793 633 840 677 q 682 589 745 589 l 380 589 q 352 619 352 589 q 374 649 352 649 l 686 649 q 745 672 721 649 q 770 730 770 694 q 746 793 770 767 q 686 819 723 819 l 165 819 q 121 860 121 819 q 131 893 121 879 q 158 907 141 907 l 694 907 m 861 -311 q 828 -350 861 -350 l 246 -350 q 147 -302 183 -350 q 111 -194 111 -253 q 148 -94 111 -135 q 240 -53 185 -53 q 332 -90 295 -53 q 369 -177 369 -127 q 341 -271 369 -227 l 832 -271 q 852 -282 842 -271 q 861 -311 861 -294 m 322 -202 q 300 -148 322 -169 q 243 -127 278 -127 q 182 -147 207 -127 q 156 -200 156 -167 q 178 -253 156 -232 q 239 -274 200 -274 q 300 -255 278 -274 q 322 -202 322 -236 z "},"ొ":{"ha":879,"x_min":-237,"x_max":768,"o":"m 53 904 q 153 810 121 904 q 213 883 186 863 q 276 904 239 904 l 610 904 q 723 851 677 904 q 768 713 768 798 q 722 574 768 628 q 601 520 675 520 q 477 574 527 520 q 427 693 427 628 q 468 809 427 758 l 257 809 q 213 793 229 809 q 183 745 197 777 q 176 706 179 721 q 155 691 172 691 q 134 714 137 691 q 58 809 114 809 l -86 809 q -144 788 -121 809 q -167 730 -167 767 q -140 667 -167 693 q -72 642 -113 642 l -9 642 l -9 592 l -72 592 q -190 636 -142 592 q -237 749 -237 679 q -193 861 -237 819 q -83 904 -149 904 l 53 904 m 597 621 q 622 621 597 621 q 681 648 647 621 q 716 720 716 675 q 684 794 716 765 q 599 823 652 823 q 513 794 545 823 q 482 719 482 765 q 514 647 482 673 q 597 621 547 621 z "},"ో":{"ha":883,"x_min":-236,"x_max":770,"o":"m 730 1067 q 684 1028 730 1028 q 650 1080 666 1028 q 580 1132 633 1132 q 530 1106 547 1132 q 513 1036 513 1079 q 533 955 513 993 q 573 898 561 914 l 612 898 q 724 846 679 898 q 770 708 770 793 q 723 569 770 622 q 603 515 677 515 q 479 569 529 515 q 429 687 429 622 q 469 803 429 751 l 258 803 q 214 787 230 803 q 185 740 199 770 q 178 700 181 714 q 156 686 174 686 q 134 709 139 686 q 60 803 116 803 l -84 803 q -142 783 -120 803 q -165 725 -165 763 q -138 661 -165 687 q -70 635 -111 635 l -7 635 l -7 585 l -70 585 q -188 629 -141 585 q -236 744 -236 673 q -192 856 -236 814 q -81 898 -148 898 l 55 898 q 155 805 123 898 q 214 878 188 858 q 278 898 241 898 l 513 898 q 443 1049 443 976 q 484 1164 443 1122 q 588 1206 526 1206 q 690 1165 650 1206 q 730 1067 730 1123 m 717 716 q 686 789 717 761 q 600 818 654 818 q 515 789 547 818 q 483 715 483 761 q 516 641 483 668 q 599 614 549 614 q 683 642 649 614 q 717 716 717 670 z "},"ౌ":{"ha":812,"x_min":-209,"x_max":696,"o":"m 519 876 q 643 820 589 876 q 696 681 696 765 q 648 542 696 598 q 528 487 600 487 q 406 540 457 487 q 355 659 355 592 q 397 774 355 726 l 199 774 q 227 738 220 756 q 234 666 234 719 q 198 576 234 614 q 114 538 162 538 l -40 538 q -77 566 -77 538 q -55 598 -77 598 l 81 598 q 148 621 120 598 q 176 682 176 643 q 151 747 176 721 q 90 774 127 774 l -151 774 q -192 786 -174 774 q -209 820 -209 798 q -194 859 -209 842 q -164 876 -179 876 l 519 876 m 526 582 q 549 582 526 582 q 607 609 571 582 q 642 683 642 636 q 607 758 642 730 q 523 786 571 786 q 444 759 475 786 q 413 684 413 731 q 447 609 413 636 q 526 582 480 582 z "},"్":{"ha":0,"x_min":-269,"x_max":367,"o":"m -116 659 q -203 687 -171 659 q -236 775 -236 716 q -188 863 -236 835 q -245 910 -222 877 q -269 1004 -269 942 q -234 1102 -269 1065 q -134 1139 -199 1139 l 325 1139 q 367 1089 367 1139 q 323 1039 367 1039 l -156 1039 q -191 1021 -179 1039 q -202 975 -202 1002 q -185 930 -202 948 q -142 912 -169 912 l 160 912 q 198 905 186 912 q 209 876 209 898 q 169 837 209 837 l -120 837 q -179 774 -179 837 q -123 710 -179 710 l 146 710 q 174 691 174 710 q 146 659 174 659 l -116 659 z "},"ౕ":{"ha":304,"x_min":0,"x_max":299,"o":"m 91 890 q 25 938 51 904 q 0 1018 0 972 q 44 1102 0 1064 q 146 1141 88 1141 q 245 1098 204 1141 q 299 995 287 1055 l 267 995 q 229 1049 262 1027 q 151 1071 195 1071 q 79 1049 107 1071 q 51 988 51 1027 q 87 919 51 949 q 107 890 123 888 l 91 890 z "},"ౖ":{"ha":0,"x_min":-756,"x_max":-5,"o":"m -5 -420 q -39 -459 -5 -459 l -621 -459 q -720 -411 -684 -459 q -756 -303 -756 -362 q -719 -202 -756 -244 q -627 -160 -682 -160 q -534 -197 -571 -160 q -498 -286 -498 -234 q -526 -380 -498 -338 l -35 -380 q -15 -391 -25 -380 q -5 -420 -5 -403 m -628 -383 q -608 -383 -628 -383 q -567 -365 -589 -383 q -545 -312 -545 -346 q -567 -257 -545 -278 q -624 -236 -589 -236 q -685 -256 -659 -236 q -710 -309 -710 -276 q -688 -363 -710 -343 q -628 -383 -666 -383 z "},"ౘ":{"ha":868,"x_min":-2,"x_max":788,"o":"m 418 104 q 248 -11 362 -11 q 128 42 178 -11 q 79 172 79 95 q 199 346 79 292 l 72 343 q 19 351 37 343 q 2 389 2 359 q 16 434 2 420 q 50 448 30 448 q 102 440 70 448 q 219 403 158 420 q 280 360 280 387 q 258 343 280 350 q 203 309 218 322 q 169 263 188 297 q 149 204 149 229 q 181 122 149 153 q 278 91 213 91 q 374 135 343 91 q 424 229 399 185 q 447 204 440 229 q 459 165 455 179 q 499 119 469 141 q 563 97 529 97 q 678 149 633 97 q 723 292 723 202 q 650 508 723 424 q 462 592 577 592 l 387 592 q 244 679 373 603 q 181 745 181 716 q 201 796 181 774 q 251 818 222 818 q 313 752 267 818 q 385 650 359 686 q 590 857 457 719 q 731 997 723 995 q 772 981 756 1006 q 788 932 788 956 q 672 827 788 919 q 441 642 557 735 q 705 517 624 642 q 775 244 775 413 q 722 66 775 142 q 559 -11 668 -11 q 476 19 513 -11 q 418 104 438 49 m 689 1171 q 577 1032 689 1032 l 26 1032 q 5 1043 12 1032 q -2 1064 -2 1053 q 21 1099 -2 1099 l 494 1099 q 476 1174 476 1136 q 508 1246 476 1213 q 582 1278 540 1278 q 657 1244 624 1278 q 689 1171 689 1210 m 581 1099 q 595 1099 581 1099 q 628 1117 608 1099 q 647 1157 647 1136 q 631 1196 647 1178 q 585 1215 615 1215 q 536 1199 554 1215 q 519 1157 519 1183 q 536 1115 519 1130 q 581 1099 554 1099 z "},"ౙ":{"ha":868,"x_min":-2,"x_max":759,"o":"m 390 155 q 197 -11 350 -11 q 58 44 114 -11 q 2 188 2 98 q 86 339 2 295 q 239 378 193 366 q 325 468 325 401 q 295 547 325 517 q 218 577 265 577 q 118 499 139 577 q 53 422 97 422 q 9 476 9 422 q 65 594 9 550 q 203 638 121 638 q 338 580 285 638 q 403 466 353 559 q 457 411 417 436 q 543 387 498 387 q 691 496 691 387 q 640 571 691 557 q 589 577 614 577 q 550 582 564 577 q 536 606 536 587 q 552 633 536 624 q 589 642 568 642 q 701 591 659 642 q 742 464 742 540 q 691 342 742 389 q 570 295 640 295 q 376 445 413 295 q 338 369 364 392 q 263 334 313 346 q 149 308 213 322 q 83 200 83 281 q 120 126 83 153 q 207 98 156 98 q 331 148 287 98 q 396 248 362 199 q 415 222 408 248 q 487 123 431 164 q 579 97 526 97 q 669 128 633 97 q 705 218 705 160 l 701 262 q 719 283 701 283 q 750 250 740 283 q 759 176 759 216 q 706 40 759 95 q 582 -14 652 -14 q 460 28 512 -14 q 390 155 408 70 m 689 909 q 577 770 689 770 l 26 770 q 5 781 12 770 q -2 803 -2 793 q 21 839 -2 839 l 494 839 q 476 914 476 876 q 508 985 476 953 q 582 1018 540 1018 q 657 984 624 1018 q 689 909 689 949 m 581 839 q 595 839 581 839 q 628 857 608 839 q 647 896 647 876 q 631 935 647 916 q 585 955 615 955 q 536 939 554 955 q 519 897 519 923 q 536 854 519 870 q 581 839 554 839 z "},"ౠ":{"ha":2069,"x_min":0,"x_max":1957,"o":"m 1777 367 q 1902 471 1902 367 q 1867 545 1902 519 q 1784 571 1832 571 q 1704 543 1735 571 q 1672 470 1672 515 q 1704 396 1672 425 q 1777 367 1737 367 m 1276 -11 q 1099 139 1150 -11 q 1020 32 1062 65 q 895 -11 963 -11 q 785 27 826 -11 q 717 137 744 65 q 522 -11 647 -11 q 425 28 468 -11 q 374 142 382 67 q 188 -11 329 -11 q 55 51 111 -11 q 0 180 0 113 q 34 298 0 248 q 128 362 69 348 q 253 392 188 376 q 327 474 327 415 q 298 558 327 533 q 223 584 269 584 q 144 553 178 584 q 111 473 111 522 q 97 442 111 455 q 61 429 83 429 q 26 447 39 429 q 14 487 14 466 q 69 603 14 564 q 206 642 123 642 q 332 598 288 642 q 376 483 376 554 q 230 328 376 359 q 84 218 84 297 q 195 93 84 93 q 328 176 288 93 q 374 258 367 258 q 414 175 382 258 q 527 91 447 91 q 651 152 608 91 q 694 324 694 213 q 635 494 694 436 q 522 545 589 545 l 498 545 q 437 552 454 545 q 420 592 420 559 q 439 637 420 626 q 505 649 457 649 q 687 548 622 649 q 751 290 751 447 l 745 232 q 874 95 761 95 q 1019 162 958 95 q 1079 318 1079 229 q 1033 475 1079 408 q 907 541 986 541 l 858 541 q 805 589 805 541 q 812 622 805 612 q 886 643 825 643 q 1072 545 1004 643 q 1134 283 1134 443 l 1130 241 q 1259 95 1143 95 q 1405 164 1345 95 q 1464 323 1464 234 q 1418 476 1464 411 q 1299 541 1371 541 l 1236 541 q 1190 589 1190 541 q 1208 634 1190 619 q 1275 649 1225 649 l 1769 649 q 1902 601 1848 649 q 1957 466 1957 554 q 1908 323 1957 378 q 1790 269 1860 269 q 1670 321 1719 269 q 1621 425 1621 373 q 1628 503 1621 476 q 1660 561 1635 529 l 1445 561 q 1517 317 1517 461 q 1451 82 1517 174 q 1276 -11 1385 -11 z "},"ౡ":{"ha":1108,"x_min":0,"x_max":1018,"o":"m 72 288 q 0 445 0 329 q 37 559 0 506 q 186 633 86 633 q 331 582 287 633 q 385 487 366 515 q 457 589 425 561 q 598 633 505 633 q 738 575 691 633 q 786 429 786 517 q 670 251 786 322 q 454 149 563 202 q 338 -14 338 84 q 377 -89 338 -53 q 471 -125 417 -125 q 550 -88 526 -125 q 571 -21 571 -62 q 563 54 571 33 q 556 77 556 74 l 556 83 q 569 113 556 102 q 596 125 582 125 l 893 125 q 980 89 942 125 q 1018 -6 1018 53 q 983 -103 1018 -65 q 899 -141 948 -141 q 814 -105 851 -141 q 777 -22 777 -69 q 805 56 777 25 l 624 56 q 636 -18 636 19 q 594 -131 636 -84 q 467 -178 552 -178 q 335 -130 382 -178 q 288 -5 288 -83 q 397 176 288 100 q 603 283 499 229 q 714 411 714 345 q 672 495 714 462 q 575 527 629 527 q 452 482 494 527 q 385 369 436 462 q 304 485 350 443 q 193 527 258 527 q 89 492 128 527 q 49 403 49 457 q 84 313 49 383 l 90 297 q 72 288 90 288 m 948 47 q 898 67 928 67 q 846 47 868 67 q 823 -5 823 28 q 868 -69 823 -51 q 904 -74 881 -74 q 951 -57 927 -74 q 976 -8 976 -40 q 948 47 976 25 z "},"ౢ":{"ha":12,"x_min":-728,"x_max":-222,"o":"m -350 -172 q -222 -309 -222 -172 q -295 -417 -222 -373 q -436 -485 -366 -452 q -512 -589 -512 -526 q -491 -636 -512 -615 q -436 -658 -469 -658 q -368 -605 -385 -658 q -327 -552 -352 -552 q -302 -564 -311 -552 q -294 -594 -294 -577 q -328 -665 -294 -635 q -422 -694 -362 -694 q -512 -664 -482 -694 q -541 -584 -541 -633 q -471 -468 -541 -515 q -337 -396 -406 -432 q -267 -321 -267 -359 q -294 -261 -267 -283 q -365 -239 -322 -239 q -436 -271 -408 -239 q -480 -343 -448 -283 q -532 -267 -503 -295 q -603 -239 -561 -239 q -671 -263 -645 -239 q -696 -322 -696 -287 q -687 -350 -696 -332 q -675 -373 -677 -367 q -670 -389 -670 -383 q -680 -394 -670 -394 q -694 -385 -689 -390 q -728 -305 -728 -357 q -705 -220 -728 -253 q -607 -172 -672 -172 q -517 -206 -543 -172 q -480 -267 -492 -248 q -434 -202 -454 -218 q -350 -172 -401 -172 z "},"ౣ":{"ha":7,"x_min":-782,"x_max":-125,"o":"m -480 -661 q -413 -589 -413 -661 q -424 -534 -413 -556 q -424 -523 -424 -531 q -415 -508 -424 -515 q -397 -501 -406 -501 l -204 -501 q -149 -525 -172 -501 q -125 -586 -125 -549 q -147 -649 -125 -624 q -200 -673 -169 -673 q -256 -649 -232 -673 q -280 -595 -280 -624 q -262 -545 -280 -566 l -380 -545 q -371 -603 -371 -570 q -398 -666 -371 -636 q -481 -696 -425 -696 q -566 -665 -536 -696 q -596 -585 -596 -635 q -526 -469 -596 -517 q -389 -396 -459 -434 q -320 -321 -320 -359 q -347 -262 -320 -283 q -418 -241 -374 -241 q -491 -271 -462 -241 q -533 -343 -501 -283 q -584 -269 -557 -295 q -658 -241 -615 -241 q -725 -264 -700 -241 q -751 -322 -751 -287 q -741 -350 -751 -332 q -729 -374 -731 -367 q -724 -384 -726 -382 q -723 -389 -723 -387 q -735 -396 -723 -396 q -782 -294 -782 -367 q -759 -220 -782 -253 q -660 -172 -724 -172 q -570 -206 -596 -172 q -533 -267 -547 -248 q -487 -202 -506 -218 q -404 -172 -455 -172 q -274 -304 -274 -172 q -348 -418 -274 -374 q -489 -485 -420 -452 q -564 -591 -564 -526 q -539 -639 -564 -617 q -480 -661 -513 -661 m -202 -629 q -153 -585 -153 -629 q -167 -552 -153 -566 q -201 -538 -181 -538 q -236 -551 -222 -538 q -250 -585 -250 -564 q -222 -626 -250 -615 q -202 -629 -213 -629 z "},"౦":{"ha":784,"x_min":0,"x_max":622,"o":"m 0 296 q 0 364 0 296 q 91 528 0 432 q 309 624 183 624 q 528 533 434 624 q 622 311 622 441 q 530 83 622 181 q 309 -16 438 -16 q 91 72 181 -16 q 0 296 0 160 m 310 88 q 361 88 310 88 q 483 157 411 88 q 554 331 554 227 q 483 505 554 434 q 310 575 413 575 q 134 501 207 575 q 60 330 60 427 q 134 160 60 232 q 310 88 209 88 z "},"౧":{"ha":948,"x_min":0,"x_max":788,"o":"m 686 519 q 788 302 788 432 q 721 91 788 172 q 568 -11 675 39 q 547 -14 557 -14 q 499 30 499 -14 q 526 62 499 51 q 652 127 619 98 q 744 292 744 193 q 658 459 744 390 q 410 527 571 527 q 149 469 248 527 q 51 299 51 411 q 273 58 51 128 q 297 33 297 51 q 280 -1 297 14 q 244 -12 262 -16 q 0 287 0 55 q 117 525 0 429 q 385 621 234 621 q 686 519 573 621 z "},"౨":{"ha":976,"x_min":0,"x_max":805,"o":"m 517 600 q 715 511 624 600 q 805 283 805 422 q 715 63 805 144 q 482 -18 624 -18 l 46 -18 q 0 29 0 -18 q 49 76 0 76 l 469 76 q 676 141 600 76 q 754 297 752 206 q 687 466 756 389 q 587 533 635 526 q 608 457 608 489 q 573 366 608 401 q 481 331 538 331 q 383 367 424 331 q 343 461 343 404 q 394 558 343 517 q 517 600 445 600 m 556 457 q 534 513 556 480 q 505 556 517 533 q 411 466 411 533 q 489 380 411 380 q 556 457 556 380 z "},"౩":{"ha":631,"x_min":2,"x_max":480,"o":"m 480 179 q 410 44 480 100 q 242 -12 339 -12 q 69 47 144 -12 q 11 134 2 97 q 46 160 16 160 q 63 151 58 160 q 142 67 128 77 q 240 30 186 30 q 343 77 294 30 q 392 185 392 125 q 341 288 392 265 q 266 301 315 301 q 204 302 218 301 q 190 323 190 304 q 206 346 190 341 q 325 353 246 345 q 413 469 415 387 q 253 580 410 580 q 144 534 192 580 q 97 482 121 508 q 77 475 90 475 q 39 508 39 475 q 44 524 39 515 q 253 624 95 624 q 408 577 339 624 q 476 450 476 529 q 399 315 476 390 q 480 179 480 258 z "},"౪":{"ha":717,"x_min":2,"x_max":601,"o":"m 601 476 q 357 232 601 306 q 450 109 450 188 q 408 17 450 55 q 327 -21 366 -21 q 222 15 260 -21 q 185 100 185 51 q 248 220 185 181 q 88 297 135 262 q 2 454 2 359 q 30 543 2 517 q 58 556 42 556 q 93 520 93 556 q 88 508 93 513 q 58 432 58 469 q 85 362 58 396 q 184 299 113 329 q 295 265 255 269 q 466 334 385 273 q 547 454 547 396 q 512 527 547 491 q 469 575 471 564 q 481 612 468 600 q 508 621 494 624 q 570 569 538 614 q 601 476 601 524 m 318 53 q 367 69 345 53 q 390 117 390 86 q 366 171 390 148 q 306 200 341 195 q 234 117 234 181 q 318 53 234 53 z "},"౫":{"ha":851,"x_min":2,"x_max":751,"o":"m 726 127 q 751 95 751 127 q 726 26 751 63 q 649 -16 694 -16 q 558 38 587 -16 q 536 136 529 91 q 543 209 543 181 q 471 339 543 306 q 406 348 438 348 q 213 243 301 348 q 84 30 151 135 q 54 19 72 19 q 18 34 35 19 q 4 63 2 49 q 111 243 11 132 q 299 374 211 353 q 70 587 248 540 q 46 610 46 592 q 58 636 46 624 q 81 649 70 649 q 218 582 146 649 q 332 385 306 503 q 420 392 339 387 q 352 513 352 466 q 390 618 352 578 q 486 658 429 658 q 586 621 543 658 q 629 526 629 584 q 501 366 629 422 q 591 301 570 348 q 606 211 605 271 q 607 95 607 151 q 652 30 612 30 q 707 98 700 30 q 726 127 709 127 m 538 443 q 578 515 578 480 q 556 571 578 550 q 498 592 533 592 q 447 568 462 592 q 429 513 436 556 q 483 404 418 461 q 538 443 510 424 z "},"౬":{"ha":904,"x_min":0,"x_max":810,"o":"m 767 -16 l 241 -16 q 76 25 139 -16 q 0 172 0 76 q 97 311 0 250 q 2 461 2 371 q 70 575 2 534 q 207 608 127 608 q 244 585 244 608 q 207 561 244 561 q 65 457 65 561 q 197 359 65 359 l 475 359 q 513 318 513 359 q 478 278 513 278 l 192 278 q 98 243 135 278 q 62 170 62 209 q 99 104 62 130 q 192 77 137 77 l 759 77 q 810 33 810 72 q 767 -16 810 -16 z "},"౭":{"ha":631,"x_min":0,"x_max":469,"o":"m 448 222 q 469 185 469 222 q 400 45 469 107 q 216 -18 331 -18 q 71 34 142 -18 q 0 178 0 86 q 93 313 0 271 q 213 343 153 327 q 309 362 262 350 q 383 432 383 387 q 213 527 383 527 q 40 418 74 527 q 23 411 35 408 q 5 443 5 415 q 74 568 5 515 q 213 621 142 621 q 373 570 313 621 q 432 450 432 519 q 336 325 432 360 q 190 292 274 313 q 91 265 105 271 q 47 176 47 241 q 114 97 47 125 q 236 77 167 77 q 355 107 304 77 q 431 204 418 142 q 448 222 434 222 z "},"౮":{"ha":897,"x_min":0,"x_max":791,"o":"m 791 575 q 781 531 791 543 q 728 519 770 519 l 397 519 q 480 427 431 498 q 529 274 529 357 q 443 55 529 139 q 260 -18 366 -18 q 77 65 155 -18 q 0 268 0 148 q 70 482 0 389 q 91 491 77 491 q 125 459 125 491 q 107 424 125 441 q 40 274 40 353 q 108 133 40 195 q 265 70 176 70 q 418 127 353 70 q 483 289 483 185 q 382 480 483 394 q 269 543 322 529 q 262 575 262 556 q 311 621 262 619 l 721 621 q 791 575 791 621 z "},"౯":{"ha":904,"x_min":0,"x_max":810,"o":"m 810 563 q 731 508 810 508 l 176 508 q 92 483 123 508 q 62 418 62 457 q 204 315 62 315 l 469 315 q 515 271 515 315 q 459 239 515 239 l 218 239 q 62 132 62 239 q 113 50 62 81 q 222 25 165 19 q 236 4 236 25 q 225 -18 237 -18 q 67 25 130 -18 q 4 141 4 67 q 40 227 4 188 q 109 281 69 265 q 2 443 0 325 q 69 562 2 515 q 211 608 135 608 l 731 608 q 810 563 810 608 z "},"౸":{"ha":842,"x_min":0,"x_max":747,"o":"m 531 109 q 383 77 468 77 q 230 105 299 77 q 113 185 162 132 q 0 475 0 306 q 102 730 0 619 q 217 812 148 781 q 370 844 287 844 q 521 814 454 844 q 640 735 589 784 q 747 469 747 629 q 642 188 747 301 q 612 160 631 172 l 636 146 q 719 69 701 102 q 737 -5 737 37 q 692 -94 737 -47 q 555 -196 647 -141 q 392 -283 462 -251 l 329 -311 q 305 -315 318 -315 q 280 -302 292 -315 q 267 -273 267 -288 q 295 -232 267 -241 l 334 -214 q 497 -134 418 -179 q 605 -60 575 -88 q 635 0 635 -32 q 580 83 635 51 q 531 109 557 98 m 86 494 q 113 374 86 427 q 183 288 141 322 q 373 225 260 225 q 476 244 424 225 q 569 300 529 264 q 634 388 608 336 q 659 497 659 440 q 636 603 659 554 q 573 689 614 652 q 373 768 492 768 q 179 698 264 768 q 86 494 86 621 z "},"౹":{"ha":309,"x_min":109,"x_max":193,"o":"m 192 840 l 193 823 l 193 -7 q 153 -28 185 -28 q 109 0 109 -28 q 109 830 109 0 q 147 863 109 863 q 192 840 185 863 z "},"౺":{"ha":541,"x_min":0,"x_max":454,"o":"m 220 455 q 360 487 311 455 l 360 883 q 406 919 360 919 q 452 893 448 919 l 454 876 l 454 11 l 452 -5 q 406 -33 448 -33 q 376 -26 390 -33 q 361 -11 362 -19 q 360 4 360 -2 l 360 394 q 218 367 308 367 q 21 482 79 367 q 0 582 0 524 l 0 883 q 46 919 0 919 q 90 893 86 919 l 91 876 l 91 578 q 172 461 91 483 q 220 455 197 455 z "},"౻":{"ha":895,"x_min":0,"x_max":802,"o":"m 712 879 q 756 905 716 905 q 802 879 796 905 l 802 -5 q 758 -33 791 -33 q 728 -26 742 -33 q 713 -11 714 -19 q 712 4 712 -2 l 712 387 q 599 362 663 362 q 496 374 534 362 q 403 434 429 396 q 383 418 394 427 q 216 362 320 362 q 21 475 79 362 q 0 573 0 517 l 0 879 q 46 907 4 907 q 90 879 86 907 l 90 570 q 171 454 90 475 q 216 448 195 448 q 323 477 290 448 q 355 566 355 506 l 355 879 q 401 905 359 905 q 447 879 443 905 l 447 570 q 573 448 447 448 q 712 480 659 448 l 712 879 z "},"౼":{"ha":1057,"x_min":35,"x_max":1002,"o":"m 979 621 q 984 620 979 621 q 995 607 988 619 q 1002 565 1002 594 q 977 529 1002 536 l 970 529 q 955 527 963 529 q 290 527 515 527 q 57 530 65 527 q 42 544 49 533 q 35 571 35 556 q 60 621 35 614 q 70 622 69 622 q 745 622 519 622 q 979 621 970 622 z "},"౽":{"ha":1294,"x_min":0,"x_max":1159,"o":"m 53 745 q 0 796 0 745 q 28 842 0 832 q 42 844 35 844 q 454 844 248 844 q 654 788 584 844 q 724 629 724 731 q 654 478 724 541 q 385 362 573 408 q 179 295 255 338 q 134 231 134 271 q 185 158 134 192 q 338 125 237 125 q 1106 125 721 125 q 1137 113 1115 125 q 1158 64 1159 102 q 1139 14 1157 26 q 1115 2 1122 2 q 396 2 756 2 q 32 130 100 2 q 9 226 9 176 q 23 308 9 276 q 70 366 37 339 q 167 417 104 392 q 328 464 230 441 q 478 506 425 487 q 596 592 577 547 q 605 633 605 615 q 566 714 605 682 q 454 745 527 745 q 53 745 253 745 z "},"౾":{"ha":1248,"x_min":0,"x_max":1134,"o":"m 267 107 l 376 104 l 1094 104 q 1123 98 1113 100 q 1134 71 1134 97 q 1123 25 1134 46 q 1094 2 1113 5 l 378 2 l 301 4 q 102 53 172 4 q 55 154 55 86 q 96 258 55 222 q 232 304 137 295 l 327 315 q 410 337 396 325 q 425 360 424 348 q 390 390 425 383 q 283 397 355 397 q 160 405 211 397 q 77 429 109 413 q 18 524 18 459 q 56 612 18 587 q 171 646 95 636 q 287 665 248 656 q 348 682 327 673 q 389 726 389 696 q 346 759 389 749 l 301 763 l 248 765 q 85 765 141 765 q 21 766 30 765 q 6 779 12 767 q 0 807 0 791 q 25 847 0 844 l 40 849 l 248 849 q 476 781 431 849 q 492 722 492 756 q 483 665 492 687 q 450 626 473 643 q 285 577 401 594 l 197 566 q 120 545 135 561 q 114 530 114 540 q 119 514 114 520 q 142 501 123 508 q 261 489 204 489 q 334 488 318 489 q 389 483 350 487 q 461 466 429 480 q 527 367 527 438 q 471 262 527 295 q 248 213 422 234 q 214 209 232 213 q 191 205 197 206 q 176 199 185 204 q 160 191 164 195 q 156 178 156 186 q 181 131 149 151 q 234 109 213 111 q 267 107 255 107 z "},"౿":{"ha":1338,"x_min":0,"x_max":1239,"o":"m 1234 404 l 1225 387 q 1034 155 1146 241 q 816 33 921 69 q 591 -2 710 -2 q 257 77 411 -2 q 151 149 211 100 q 46 295 91 199 q 0 515 0 392 q 74 745 0 654 q 283 839 151 839 q 427 782 371 839 q 475 635 475 735 q 456 561 475 594 q 411 506 438 527 q 314 466 360 466 q 237 477 267 466 q 185 512 207 489 q 135 642 135 561 q 144 707 135 663 q 88 612 98 645 q 79 500 79 575 q 120 341 79 425 q 229 216 162 257 q 596 125 383 125 q 715 131 643 125 q 883 203 786 137 q 1037 322 981 269 q 1143 450 1086 364 l 1159 469 q 1182 476 1166 476 q 1219 459 1199 476 q 1239 426 1239 441 q 1234 404 1239 411 m 369 719 q 342 747 360 735 q 299 759 323 759 q 223 719 258 759 q 202 650 202 691 q 227 580 202 610 q 299 550 251 550 q 370 578 346 550 q 394 647 394 607 q 369 719 394 687 z "},"‌":{"ha":0,"x_min":0,"x_max":95,"o":"m 0 -587 l 0 1299 l 95 1299 l 95 -587 l 0 -587 z "},"‍":{"ha":0,"x_min":0,"x_max":362,"o":"m 0 -587 l 0 1299 l 362 1299 l 362 1217 l 95 1217 l 95 -587 l 0 -587 z "},"–":{"ha":921,"x_min":28,"x_max":849,"o":"m 28 376 l 849 376 l 849 276 l 28 276 l 28 376 z "},"—":{"ha":2008,"x_min":4,"x_max":1888,"o":"m 4 376 l 1888 376 l 1888 276 l 4 276 l 4 376 z "},"‘":{"ha":343,"x_min":72,"x_max":236,"o":"m 236 877 q 145 776 174 826 q 121 691 116 726 l 127 682 l 137 682 l 142 684 l 167 686 q 212 665 193 686 q 230 620 230 645 q 207 575 230 594 q 152 556 185 556 q 96 589 120 556 q 72 666 72 622 q 120 800 72 737 q 220 900 153 851 l 236 877 z "},"’":{"ha":343,"x_min":76,"x_max":239,"o":"m 239 701 q 200 572 239 628 q 91 468 160 517 l 76 489 q 166 590 137 540 q 190 675 195 640 l 183 682 l 174 682 l 167 680 l 144 679 q 99 699 118 679 q 81 751 81 719 q 114 800 81 782 q 151 810 134 810 q 215 778 192 810 q 239 701 239 745 z "},"“":{"ha":629,"x_min":104,"x_max":527,"o":"m 267 877 q 177 776 206 826 q 153 691 148 726 l 158 682 l 169 682 l 174 684 l 199 686 q 243 665 225 686 q 262 620 262 645 q 239 575 262 594 q 184 556 216 556 q 127 589 151 556 q 104 666 104 622 q 151 800 104 737 q 251 900 185 851 l 267 877 m 527 877 q 437 776 466 826 q 413 691 408 726 l 418 682 l 429 682 l 436 684 l 459 686 q 504 665 485 686 q 522 620 522 645 q 499 575 522 594 q 444 556 476 556 q 388 589 411 556 q 364 666 364 622 q 512 900 364 788 l 527 877 z "},"”":{"ha":629,"x_min":76,"x_max":520,"o":"m 239 701 q 200 572 239 628 q 91 468 160 517 l 76 489 q 166 590 137 540 q 190 675 195 640 l 183 682 l 174 682 l 167 680 l 144 679 q 99 699 118 679 q 81 751 81 719 q 114 800 81 782 q 151 810 134 810 q 215 778 192 810 q 239 701 239 745 m 520 701 q 481 572 520 628 q 373 468 441 517 l 357 489 q 447 590 418 540 q 471 675 476 640 l 464 682 l 455 682 l 448 680 l 424 679 q 381 699 399 679 q 362 751 362 719 q 396 800 362 782 q 432 810 415 810 q 497 778 473 810 q 520 701 520 745 z "},"•":{"ha":749,"x_min":0,"x_max":656,"o":"m 371 462 l 438 534 l 471 577 q 510 624 496 612 q 563 643 536 643 q 608 635 591 643 q 649 612 626 626 q 656 567 656 584 q 647 530 656 550 q 626 499 638 510 q 534 468 605 478 q 425 449 462 457 q 348 417 389 441 q 485 374 411 385 l 552 366 q 625 333 596 360 q 654 262 654 306 q 649 223 654 239 q 575 190 612 190 q 515 206 538 190 q 471 257 492 222 q 411 334 427 313 q 341 394 376 371 l 339 378 q 374 248 339 325 l 397 199 q 413 126 413 158 q 390 68 413 93 q 331 32 367 42 q 270 67 294 42 q 246 127 246 91 q 264 202 246 162 l 280 244 q 315 383 315 334 l 315 394 q 251 341 280 373 q 192 265 222 309 q 142 209 162 222 q 91 190 118 190 q 47 198 63 190 q 5 223 30 206 q 2 249 4 237 q 0 269 0 260 q 113 366 0 350 l 172 374 q 304 417 253 387 q 161 463 250 450 q 47 489 72 476 q 2 571 2 513 l 5 612 q 86 645 51 645 q 146 624 121 645 q 200 560 171 603 q 248 494 229 517 q 315 443 281 457 l 315 466 q 287 577 315 510 q 251 664 258 643 q 243 713 243 684 q 267 767 243 742 q 331 802 292 791 q 387 767 362 791 q 411 717 411 744 q 390 629 411 680 q 341 443 341 517 q 371 462 357 448 z "},"…":{"ha":1447,"x_min":28,"x_max":1377,"o":"m 28 35 l 290 35 l 290 -51 l 28 -51 l 28 35 m 582 35 l 846 35 l 846 -51 l 582 -51 l 582 35 m 1115 35 l 1377 35 l 1377 -51 l 1115 -51 l 1115 35 z "},"₹":{"ha":719,"x_min":18,"x_max":570,"o":"m 570 861 l 522 779 l 383 779 q 410 730 403 752 q 425 680 417 709 l 570 680 l 522 600 l 429 600 q 348 443 410 498 q 164 373 265 373 l 432 -9 l 311 -9 l 44 357 l 44 432 l 102 431 q 285 498 227 431 q 314 555 306 522 q 325 600 322 587 l 18 600 l 69 680 l 308 680 q 292 720 301 709 q 267 745 283 731 q 167 779 236 779 l 18 779 l 69 861 l 570 861 z "},"℃":{"ha":1334,"x_min":104,"x_max":1224,"o":"m 1146 207 l 1224 207 q 1060 46 1169 105 q 854 -9 963 -9 q 554 112 680 -9 q 427 411 427 232 q 551 710 427 589 q 854 832 675 832 q 1108 749 995 832 q 1222 622 1195 684 l 1143 622 q 983 747 1083 709 q 853 770 916 770 q 602 662 707 770 q 498 408 498 554 q 607 156 498 262 q 854 49 716 49 q 1014 91 939 49 q 1146 207 1090 132 m 104 830 q 104 861 104 830 q 147 934 104 891 q 252 977 190 977 q 360 934 315 977 q 404 830 404 891 q 360 725 404 768 q 253 682 315 682 q 148 725 192 682 q 104 830 104 768 m 253 733 q 319 761 292 733 q 346 830 346 789 q 319 898 346 870 q 253 925 292 925 q 188 898 214 925 q 162 830 162 870 q 188 761 162 789 q 253 733 214 733 z "},"℉":{"ha":1013,"x_min":104,"x_max":905,"o":"m 104 830 q 104 861 104 830 q 147 934 104 891 q 252 977 190 977 q 360 934 315 977 q 404 830 404 891 q 360 725 404 768 q 253 682 315 682 q 148 725 192 682 q 104 830 104 768 m 253 733 q 319 761 292 733 q 346 830 346 789 q 319 898 346 870 q 253 925 292 925 q 188 898 214 925 q 162 830 162 870 q 188 761 162 789 q 253 733 214 733 m 498 5 l 498 818 l 905 818 l 905 759 l 570 759 l 570 443 l 891 443 l 891 383 l 570 383 l 570 5 l 498 5 z "},"⅓":{"ha":1104,"x_min":104,"x_max":995,"o":"m 791 278 q 868 297 840 278 q 918 378 918 331 q 885 452 918 425 q 819 478 853 478 q 727 465 772 478 q 672 452 682 452 q 654 461 661 452 q 647 482 647 469 q 699 521 647 506 q 795 536 751 536 q 930 496 876 536 q 985 382 985 455 q 918 271 985 308 q 876 253 897 258 q 985 158 956 237 q 995 100 995 135 q 939 -12 995 32 q 807 -49 888 -49 q 670 -14 726 -49 q 654 9 654 -4 q 661 29 654 21 q 677 37 668 37 q 700 32 686 37 q 807 9 752 9 q 893 33 861 9 q 925 95 925 58 q 888 191 925 158 q 795 223 851 223 l 767 223 q 745 231 752 223 q 738 250 738 239 q 745 269 738 260 q 767 278 752 278 l 791 278 m 380 -33 q 350 -60 369 -60 q 318 -50 331 -60 q 306 -29 306 -40 q 309 -9 306 -18 l 631 944 q 662 972 642 972 q 694 963 682 972 q 707 941 707 953 q 703 921 707 928 l 380 -33 m 144 803 q 127 798 137 798 q 111 807 118 798 q 104 826 104 816 q 116 846 104 837 l 250 932 q 270 937 258 937 q 291 928 281 937 q 301 902 301 919 l 301 417 q 290 393 301 401 q 267 385 280 385 q 244 393 255 385 q 234 417 234 401 l 234 861 l 144 803 z "},"←":{"ha":937,"x_min":33,"x_max":888,"o":"m 246 392 q 318 207 318 295 q 33 422 204 359 q 318 636 204 485 q 296 533 318 584 q 248 452 274 482 l 888 452 l 888 392 l 246 392 z "},"↑":{"ha":519,"x_min":37,"x_max":468,"o":"m 223 635 q 138 585 183 607 q 37 564 93 564 q 251 849 193 682 q 468 564 316 677 q 362 586 413 564 q 281 633 311 608 l 281 -5 l 223 -5 l 223 635 z "},"→":{"ha":939,"x_min":37,"x_max":891,"o":"m 677 452 q 607 636 607 549 q 891 422 723 483 q 607 207 723 360 q 629 311 607 260 q 675 392 650 362 l 37 392 l 37 452 l 677 452 z "},"↓":{"ha":520,"x_min":40,"x_max":471,"o":"m 40 280 q 227 209 127 280 l 227 849 l 285 849 l 285 209 q 366 258 315 236 q 471 280 417 280 q 255 -5 320 167 q 40 280 197 162 z "},"−":{"ha":872,"x_min":95,"x_max":770,"o":"m 95 345 l 770 345 l 770 260 l 95 260 l 95 345 z "},"◌":{"ha":1222,"x_min":95,"x_max":1116,"o":"m 607 747 q 593 747 607 747 q 561 765 580 747 q 541 808 541 782 q 561 852 541 833 q 607 870 580 870 q 651 852 633 870 q 670 808 670 833 q 651 765 670 782 q 607 747 633 747 m 541 -86 q 561 -43 541 -62 q 607 -25 580 -25 q 651 -43 633 -25 q 670 -86 670 -62 q 651 -129 670 -111 q 607 -148 633 -148 q 561 -129 580 -148 q 541 -86 541 -111 m 95 360 q 113 403 95 385 q 158 422 132 422 q 203 403 185 422 q 222 360 222 385 q 203 317 222 336 q 158 299 185 299 q 113 317 132 299 q 95 360 95 336 m 990 360 q 1007 403 990 385 q 1052 422 1025 422 q 1098 403 1079 422 q 1116 360 1116 385 q 1098 317 1116 336 q 1052 299 1079 299 q 1007 317 1025 299 q 990 360 990 336 m 219 76 q 205 76 219 76 q 174 94 192 76 q 156 138 156 113 q 174 182 156 164 q 219 200 192 200 q 265 182 246 200 q 283 138 283 164 q 265 94 283 113 q 219 76 246 76 m 993 522 q 948 541 967 522 q 930 585 930 559 q 948 628 930 610 q 993 645 967 645 q 1038 628 1020 645 q 1057 585 1057 610 q 1038 541 1057 559 q 993 522 1020 522 m 765 749 q 783 792 765 774 q 829 810 802 810 q 874 792 856 810 q 891 749 891 774 q 874 706 891 724 q 829 687 856 687 q 783 706 802 687 q 765 749 765 724 m 382 -88 q 369 -88 382 -88 q 337 -69 355 -88 q 318 -25 318 -51 q 337 18 318 0 q 382 37 355 37 q 427 18 410 37 q 445 -25 445 0 q 427 -69 445 -51 q 382 -88 410 -88 m 219 522 q 205 522 219 522 q 174 541 192 522 q 156 585 156 559 q 174 628 156 610 q 219 645 192 645 q 265 628 246 645 q 283 585 283 610 q 265 541 283 559 q 219 522 246 522 m 993 76 q 948 94 967 76 q 930 138 930 113 q 948 182 930 164 q 993 200 967 200 q 1038 182 1020 200 q 1057 138 1057 164 q 1038 94 1057 113 q 993 76 1020 76 m 318 749 q 337 792 318 774 q 382 810 355 810 q 427 792 410 810 q 445 749 445 774 q 427 706 445 724 q 382 687 410 687 q 337 706 355 687 q 318 749 318 724 m 829 -88 q 815 -88 829 -88 q 783 -69 802 -88 q 765 -25 765 -51 q 783 18 765 0 q 829 37 802 37 q 874 18 856 37 q 891 -25 891 0 q 874 -69 891 -51 q 829 -88 856 -88 z "}}}
